<svg width="26" height="26" viewBox="0 0 26 26" fill="none" xmlns="http://www.w3.org/2000/svg">
<path d="M22.3272 3.27785C19.9564 1.09262 17.0074 0 13.4855 0C9.78337 0 6.62752 1.24113 4.02327 3.72868C1.41903 6.21624 0.114258 9.30844 0.114258 13.0106C0.114258 16.559 1.35538 19.6087 3.83233 22.1652C6.31989 24.7217 9.66138 26 13.8674 26C16.4027 26 18.8903 25.4802 21.3301 24.4353C22.1257 24.0959 22.5129 23.1836 22.1893 22.3827C21.8552 21.5553 20.9111 21.1734 20.089 21.5235C17.9674 22.4357 15.8882 22.8919 13.8621 22.8919C10.6373 22.8919 8.13915 21.9106 6.36762 19.9429C4.60141 17.9804 3.71565 15.6732 3.71565 13.0265C3.71565 10.1518 4.66505 7.75439 6.55857 5.82905C8.44678 3.90902 10.7752 2.9437 13.5333 2.9437C16.0739 2.9437 18.222 3.73399 19.9723 5.31457C21.7226 6.89514 22.5977 8.88413 22.5977 11.2815C22.5977 12.9204 22.1946 14.2889 21.3937 15.3762C20.5928 16.4688 19.7601 17.0098 18.8956 17.0098C18.4288 17.0098 18.1954 16.7605 18.1954 16.2566C18.1954 15.8482 18.2273 15.3709 18.2856 14.8193L19.2722 6.75194H15.8776L15.6602 7.54223C14.7956 6.8368 13.8462 6.48144 12.8172 6.48144C11.1836 6.48144 9.78337 7.13382 8.62181 8.43329C7.45494 9.73276 6.8768 11.4088 6.8768 13.4561C6.8768 15.4557 7.39129 17.0734 8.42556 18.2987C9.45983 19.5292 10.701 20.1391 12.1542 20.1391C13.4537 20.1391 14.5622 19.5928 15.4851 18.5055C16.1799 19.5504 17.2036 20.0702 18.5561 20.0702C20.5451 20.0702 22.2636 19.2056 23.7116 17.4712C25.1595 15.7421 25.8862 13.6524 25.8862 11.2073C25.8862 8.10975 24.7034 5.46308 22.3272 3.27785ZM14.5092 15.4823C13.9099 16.2885 13.1938 16.6969 12.3611 16.6969C11.7936 16.6969 11.3374 16.3998 10.9927 15.8058C10.6426 15.2118 10.4676 14.4745 10.4676 13.5887C10.4676 12.4961 10.7116 11.6157 11.1995 10.9474C11.6875 10.2791 12.2921 9.93962 13.0135 9.93962C13.6394 9.93962 14.1963 10.1889 14.6842 10.6928C15.1722 11.1967 15.4162 11.865 15.4162 12.703C15.4109 13.7479 15.1085 14.6707 14.5092 15.4823Z" fill="#3362F5"/>
</svg>
