<svg width="50" height="50" viewBox="0 0 50 50" fill="none" xmlns="http://www.w3.org/2000/svg">
<g clip-path="url(#clip0)">
<path d="M4.16751 29.1662C4.62756 29.1662 5.00063 28.7932 5.00063 28.3327V9.99962C5.00063 9.53957 4.62756 9.1665 4.16751 9.1665C3.70709 9.1665 3.33401 9.53957 3.33401 9.99962V28.3327C3.33401 28.7932 3.70709 29.1662 4.16751 29.1662Z" fill="#3362F5"/>
<path d="M4.16753 7.50003C4.62758 7.50003 5.00066 7.12695 5.00066 6.66652V4.99988C5.00066 4.53983 4.62758 4.16675 4.16753 4.16675C3.70709 4.16675 3.33401 4.53983 3.33401 4.99988V6.66652C3.33401 7.12695 3.70709 7.50003 4.16753 7.50003Z" fill="#3362F5"/>
<path d="M25.0004 16.6665C23.1595 16.6665 21.6672 18.1588 21.6672 19.9997C21.6672 21.8407 23.1595 23.333 25.0004 23.333C26.8413 23.333 28.3336 21.8407 28.3336 19.9997C28.3317 18.1596 26.8406 16.6684 25.0004 16.6665ZM25.0004 21.6663C24.0799 21.6663 23.3338 20.9202 23.3338 19.9997C23.3338 19.0793 24.0799 18.3331 25.0004 18.3331C25.9209 18.3331 26.667 19.0793 26.667 19.9997C26.6662 20.9198 25.9205 21.6656 25.0004 21.6663Z" fill="#3362F5"/>
<path d="M34.1799 16.6635H34.1692L32.6377 16.6627C32.3878 16.0943 32.0765 15.5549 31.7088 15.0545L32.479 13.7182C32.9253 12.9194 32.6487 11.91 31.8576 11.4504L28.9802 9.7914C28.6006 9.56672 28.1467 9.50378 27.7202 9.61669C27.2911 9.72922 26.9241 10.0077 26.6998 10.3907L25.9285 11.7212C25.3113 11.6518 24.6876 11.6522 24.0704 11.7228L23.304 10.3945C22.8428 9.59838 21.8243 9.32564 21.0271 9.78454L18.1409 11.4511C17.3448 11.912 17.0717 12.9305 17.5302 13.7277L18.2973 15.0556C17.9281 15.5553 17.616 16.0951 17.3673 16.6642L15.8277 16.6665C15.3845 16.6696 14.9603 16.8485 14.6482 17.1636C14.3389 17.4737 14.1664 17.8948 14.1699 18.3331L14.168 21.6602C14.1699 22.5803 14.9114 23.3272 15.8315 23.3356L17.3635 23.3368C17.4882 23.621 17.6286 23.8979 17.7839 24.1668C17.9387 24.4354 18.1085 24.6952 18.292 24.945L17.521 26.2821C17.0755 27.0812 17.3528 28.0894 18.1436 28.5487L21.0198 30.2069C21.3994 30.432 21.8537 30.4953 22.2806 30.3824C22.7097 30.2699 23.077 29.9914 23.3013 29.6084L24.0723 28.2775C24.6899 28.3473 25.3132 28.3469 25.9308 28.2763L26.6968 29.6046C26.9172 29.988 27.2819 30.2672 27.7092 30.3801C27.8511 30.4183 27.9975 30.4377 28.1444 30.4377C28.4358 30.4377 28.7219 30.3607 28.9737 30.2146L31.8599 28.5479C32.656 28.0868 32.9291 27.0686 32.4706 26.2714L31.7042 24.9435C32.0731 24.4438 32.3851 23.9044 32.6335 23.3349L34.1731 23.333C34.6167 23.3299 35.0409 23.151 35.3525 22.8355C35.6619 22.5254 35.8343 22.1043 35.8313 21.6664L35.8328 18.3392C35.832 17.423 35.0962 16.6768 34.1799 16.6635ZM32.0636 21.669C31.7092 21.6698 31.3937 21.8948 31.2777 22.2298C31.0073 22.998 30.5965 23.7095 30.0658 24.3271C29.8358 24.5956 29.8003 24.9797 29.977 25.2861L31.0267 27.1045L28.1402 28.7715L27.0904 26.9527C26.9413 26.6948 26.6662 26.5361 26.3687 26.5361C26.3172 26.5361 26.2661 26.5407 26.2153 26.5502C25.4147 26.7001 24.5934 26.7005 23.7923 26.551C23.4444 26.4835 23.0915 26.6444 22.9145 26.9515L21.8606 28.7684L18.9698 27.1045L20.0185 25.2868C20.1955 24.9801 20.1592 24.5952 19.9284 24.3271C19.4005 23.7068 18.99 22.9958 18.7173 22.2282C18.6002 21.8945 18.2851 21.6705 17.9311 21.6705L15.8353 21.6644L15.8315 18.3331L17.9372 18.3301C18.292 18.3297 18.6074 18.1046 18.7234 17.7693C18.9935 17.0011 19.4043 16.29 19.9349 15.6724C20.165 15.4039 20.2008 15.0194 20.0242 14.7134L18.974 12.895L21.8606 11.228L22.9107 13.0468C23.0866 13.3535 23.4379 13.5152 23.7854 13.4493C24.5861 13.2982 25.4078 13.2978 26.2085 13.4481C26.5568 13.5152 26.9088 13.3547 27.0866 13.048L28.1406 11.2303L31.0306 12.895L29.9819 14.7127C29.8053 15.019 29.8412 15.4039 30.0719 15.6724C30.6003 16.2923 31.0111 17.0037 31.2842 17.7712C31.4013 18.105 31.7164 18.3285 32.0704 18.3289L34.1662 18.3301L34.1692 21.6664L32.0636 21.669Z" fill="#3362F5"/>
<path d="M49.9971 8.98538C49.9064 6.2934 47.6943 4.15949 45.0004 4.16674H11.6677V1.66663C11.6666 0.74654 10.9212 0.000779638 10.0011 1.67119e-05H5.00089C3.67378 -0.00341645 2.40008 0.52224 1.46168 1.46064C0.523277 2.39904 -0.00237886 3.67274 0.00105431 4.99986V40.8357C0.0968016 43.528 2.24291 45.6959 4.93452 45.8187C4.95741 45.8206 4.97762 45.8324 5.00089 45.8324H5.57614L6.80941 48.5359C6.87159 48.6698 6.94597 48.7979 7.03066 48.9185C7.05736 48.9574 7.08711 48.9929 7.11572 49.0303C7.1779 49.11 7.24466 49.1863 7.31637 49.258C7.35147 49.2935 7.38504 49.3289 7.42242 49.3621C7.52503 49.4544 7.63489 49.5387 7.75162 49.6131C7.77718 49.6295 7.80579 49.641 7.83249 49.6562C7.93282 49.7146 8.03734 49.7657 8.14491 49.8092C8.16704 49.8184 8.18649 49.8321 8.20862 49.8405C8.23646 49.8508 8.26507 49.8546 8.29292 49.8637C8.37379 49.8904 8.4558 49.913 8.53896 49.9313C8.59046 49.9431 8.64081 49.9564 8.69231 49.9648C8.79836 49.9812 8.90479 49.9908 9.01198 49.9934C9.03639 49.9942 9.0608 49.9999 9.08522 49.9999C9.44265 49.9995 9.79588 49.9225 10.1209 49.7733L18.761 45.8324H38.3339V48.3326C38.3347 49.2526 39.0804 49.9984 40.0005 49.9992H45.0004C47.7606 49.9961 49.9971 47.7592 50.0002 44.9993V9.16658C50.0002 9.15666 49.9949 9.14865 49.9945 9.13873C49.9945 9.08762 49.9987 9.03688 49.9971 8.98538ZM2.63697 2.64241C3.26485 2.01681 4.11475 1.66587 5.00089 1.66663H10.0011V35.8328H5.00089C3.77067 35.8331 2.58394 36.2875 1.66767 37.1084V4.99986C1.66652 4.11677 2.0148 3.26916 2.63697 2.64241ZM30.5032 38.2341L28.7386 34.3653L34.0733 34.0136L34.242 34.4603L30.5032 38.2341ZM27.0674 34.717L27.759 36.2337L22.4517 38.6544C22.1763 38.775 21.9871 39.0348 21.9569 39.3338C21.9268 39.6329 22.0603 39.9251 22.306 40.0987C22.5516 40.2719 22.8717 40.2993 23.1433 40.1704L28.4506 37.7492L29.1422 39.2659L18.259 44.2299L18.2438 44.2368L13.9786 46.1826L13.2867 44.6659L19.3527 41.8992C19.7639 41.7043 19.9428 41.2148 19.7536 40.8006C19.5648 40.3863 19.078 40.2005 18.6611 40.3832L12.5954 43.1496L11.9038 41.6333L27.0674 34.717ZM9.42968 48.257C9.01121 48.4478 8.51722 48.2635 8.32611 47.845L6.94254 44.812C6.75219 44.3932 6.93605 43.8992 7.35452 43.7077L10.3879 42.3241L11.4247 44.598V44.5988L11.4255 44.5999L12.4623 46.8735L9.42968 48.257ZM22.4151 44.1658L30.5921 40.4363C30.6341 40.4115 30.6737 40.3829 30.71 40.3508C30.7554 40.3264 30.7985 40.2974 30.8385 40.2646L35.4024 35.6569C35.9284 35.1686 36.0817 34.3981 35.7834 33.7454L35.5904 33.3227C35.3009 32.6784 34.6341 32.289 33.9307 32.3531L27.4252 32.7814C27.3352 32.7891 27.2467 32.8116 27.1635 32.8482C27.154 32.852 27.1437 32.8509 27.1345 32.8551L6.66293 42.1918C5.87292 42.5545 5.32933 43.3026 5.22786 44.1658H5.20116C3.31711 44.1895 1.75388 42.7147 1.66767 40.8326V40.7113C1.72832 38.9158 3.20458 37.4933 5.00089 37.4994H10.0011C10.9212 37.4986 11.6666 36.7529 11.6677 35.8328V5.83335H45.0004C46.7967 5.82649 48.2729 7.24934 48.3321 9.04489C48.3557 9.91959 48.02 10.7657 47.4036 11.3867C46.7211 12.0935 45.782 12.4952 44.7993 12.4998H40.0005C39.0804 12.5006 38.3347 13.2463 38.3339 14.1664V44.1658H22.4151ZM45.0004 48.3326H40.0005V14.1664H44.7993C46.1058 14.1599 47.3643 13.6717 48.3336 12.7954V44.9993C48.3317 46.8395 46.8405 48.3306 45.0004 48.3326Z" fill="#3362F5"/>
</g>
<defs>
<clipPath id="clip0">
<rect width="50" height="50" fill="white"/>
</clipPath>
</defs>
</svg>
