<svg width="25" height="25" viewBox="0 0 25 25" fill="none" xmlns="http://www.w3.org/2000/svg">
<g clip-path="url(#clip0)">
<path d="M24.4395 19.7574L20.5787 15.8961C19.8097 15.1302 18.5362 15.1535 17.7404 15.9495L15.7952 17.8942C15.6723 17.8265 15.5451 17.7558 15.4114 17.6807C14.1831 17.0001 12.5019 16.0673 10.7329 14.2969C8.95853 12.5228 8.02483 10.839 7.34215 9.60992C7.27011 9.47971 7.20109 9.35416 7.13293 9.23493L8.43839 7.93141L9.0802 7.28881C9.87722 6.49158 9.8992 5.21844 9.13198 4.45029L5.27113 0.588571C4.50391 -0.178501 3.22984 -0.15523 2.43282 0.642007L1.3447 1.73638L1.37443 1.7659C1.00957 2.23145 0.704682 2.7684 0.477793 3.34744C0.268644 3.89861 0.138428 4.42458 0.0788868 4.95161C-0.430914 9.17798 1.50041 13.0406 6.74178 18.282C13.9869 25.5267 19.8256 24.9794 20.0775 24.9527C20.6261 24.8871 21.1518 24.756 21.6861 24.5485C22.2601 24.3243 22.7967 24.0198 23.262 23.6557L23.2857 23.6769L24.3881 22.5974C25.1835 21.8003 25.2064 20.5268 24.4395 19.7574Z" fill="#3362F5"/>
</g>
<defs>
<clipPath id="clip0">
<rect width="25" height="25" fill="white"/>
</clipPath>
</defs>
</svg>
