<svg width="50" height="50" viewBox="0 0 50 50" fill="none" xmlns="http://www.w3.org/2000/svg">
<path d="M49.1667 46.6667H3.33333V0.833333C3.33333 0.3725 2.96083 0 2.5 0C2.03917 0 1.66667 0.3725 1.66667 0.833333V46.6667H0.833333C0.3725 46.6667 0 47.0392 0 47.5C0 47.9608 0.3725 48.3333 0.833333 48.3333H1.66667V49.1667C1.66667 49.6275 2.03917 50 2.5 50C2.96083 50 3.33333 49.6275 3.33333 49.1667V48.3333H49.1667C49.6275 48.3333 50 47.9608 50 47.5C50 47.0392 49.6275 46.6667 49.1667 46.6667Z" fill="#3362F5"/>
<path d="M5.83333 24.1667H7.5C7.96083 24.1667 8.33333 23.7942 8.33333 23.3333C8.33333 22.8725 7.96083 22.5 7.5 22.5H5.83333C5.3725 22.5 5 22.8725 5 23.3333C5 23.7942 5.3725 24.1667 5.83333 24.1667Z" fill="#3362F5"/>
<path d="M5.83333 20.8334H7.5C7.96083 20.8334 8.33333 20.4609 8.33333 20.0001C8.33333 19.5392 7.96083 19.1667 7.5 19.1667H5.83333C5.3725 19.1667 5 19.5392 5 20.0001C5 20.4609 5.3725 20.8334 5.83333 20.8334Z" fill="#3362F5"/>
<path d="M5.83333 17.4999H7.5C7.96083 17.4999 8.33333 17.1274 8.33333 16.6666C8.33333 16.2058 7.96083 15.8333 7.5 15.8333H5.83333C5.3725 15.8333 5 16.2058 5 16.6666C5 17.1274 5.3725 17.4999 5.83333 17.4999Z" fill="#3362F5"/>
<path d="M5.83333 14.1667H7.5C7.96083 14.1667 8.33333 13.7942 8.33333 13.3333C8.33333 12.8725 7.96083 12.5 7.5 12.5H5.83333C5.3725 12.5 5 12.8725 5 13.3333C5 13.7942 5.3725 14.1667 5.83333 14.1667Z" fill="#3362F5"/>
<path d="M5.83333 10.8334H7.5C7.96083 10.8334 8.33333 10.4609 8.33333 10.0001C8.33333 9.53925 7.96083 9.16675 7.5 9.16675H5.83333C5.3725 9.16675 5 9.53925 5 10.0001C5 10.4609 5.3725 10.8334 5.83333 10.8334Z" fill="#3362F5"/>
<path d="M5.83333 7.49992H7.5C7.96083 7.49992 8.33333 7.12742 8.33333 6.66659C8.33333 6.20575 7.96083 5.83325 7.5 5.83325H5.83333C5.3725 5.83325 5 6.20575 5 6.66659C5 7.12742 5.3725 7.49992 5.83333 7.49992Z" fill="#3362F5"/>
<path d="M5.83333 4.16667H7.5C7.96083 4.16667 8.33333 3.79417 8.33333 3.33333C8.33333 2.8725 7.96083 2.5 7.5 2.5H5.83333C5.3725 2.5 5 2.8725 5 3.33333C5 3.79417 5.3725 4.16667 5.83333 4.16667Z" fill="#3362F5"/>
<path d="M9.17747 40.8224C11.935 40.8224 14.1775 38.5799 14.1775 35.8224C14.1775 34.5316 13.6816 33.3574 12.8758 32.4691L15.8141 29.5308C16.7016 30.3374 17.8758 30.8333 19.1666 30.8333C20.4575 30.8333 21.6316 30.3374 22.52 29.5316L26.3016 33.3133C25.4958 34.2016 25 35.3757 25 36.6666C25 39.4241 27.2425 41.6666 30 41.6666C32.7575 41.6666 35 39.4241 35 36.6666C35 35.8041 34.7808 34.9924 34.395 34.2832L41.6475 27.0308C42.535 27.8374 43.7091 28.3333 45 28.3333C47.7575 28.3333 50 26.0908 50 23.3333C50 20.5758 47.7575 18.3333 45 18.3333C42.2425 18.3333 40 20.5758 40 23.3333C40 24.1958 40.2191 25.0074 40.605 25.7166L33.3525 32.9691C32.465 32.1624 31.2908 31.6666 30 31.6666C29.1375 31.6666 28.3258 31.8858 27.6166 32.2716L23.5608 28.2158C23.9475 27.5074 24.1666 26.6958 24.1666 25.8333C24.1666 23.0758 21.9241 20.8333 19.1666 20.8333C16.4091 20.8333 14.1666 23.0758 14.1666 25.8333C14.1666 26.6958 14.3858 27.5074 14.7716 28.2166L11.56 31.4283C10.8508 31.0424 10.0391 30.8232 9.17664 30.8232C6.41914 30.8232 4.17664 33.0657 4.17664 35.8232C4.17664 38.5807 6.41997 40.8224 9.17747 40.8224ZM45 19.9999C46.8383 19.9999 48.3333 21.4949 48.3333 23.3333C48.3333 25.1716 46.8383 26.6666 45 26.6666C43.1616 26.6666 41.6666 25.1716 41.6666 23.3333C41.6666 21.4949 43.1616 19.9999 45 19.9999ZM33.3333 36.6666C33.3333 38.5049 31.8383 39.9999 30 39.9999C28.1616 39.9999 26.6666 38.5049 26.6666 36.6666C26.6666 34.8282 28.1616 33.3332 30 33.3332C31.8383 33.3332 33.3333 34.8282 33.3333 36.6666ZM19.1666 22.4999C21.005 22.4999 22.5 23.9949 22.5 25.8333C22.5 27.6716 21.005 29.1666 19.1666 29.1666C17.3283 29.1666 15.8333 27.6716 15.8333 25.8333C15.8333 23.9949 17.3283 22.4999 19.1666 22.4999ZM9.17747 32.4891C11.0158 32.4891 12.5108 33.9841 12.5108 35.8224C12.5108 37.6607 11.0158 39.1557 9.17747 39.1557C7.33914 39.1557 5.84414 37.6607 5.84414 35.8224C5.84414 33.9841 7.33914 32.4891 9.17747 32.4891Z" fill="#3362F5"/>
</svg>
