<svg width="50" height="50" viewBox="0 0 50 50" fill="none" xmlns="http://www.w3.org/2000/svg">
<path d="M29.1667 44.1667C29.6269 44.1667 30 43.7936 30 43.3333C30 42.8731 29.6269 42.5 29.1667 42.5C28.7064 42.5 28.3333 42.8731 28.3333 43.3333C28.3333 43.7936 28.7064 44.1667 29.1667 44.1667Z" fill="#3362F5"/>
<path d="M32.5 44.1667C32.9602 44.1667 33.3333 43.7936 33.3333 43.3333C33.3333 42.8731 32.9602 42.5 32.5 42.5C32.0398 42.5 31.6667 42.8731 31.6667 43.3333C31.6667 43.7936 32.0398 44.1667 32.5 44.1667Z" fill="#3362F5"/>
<path d="M35.8333 44.1667C36.2936 44.1667 36.6667 43.7936 36.6667 43.3333C36.6667 42.8731 36.2936 42.5 35.8333 42.5C35.3731 42.5 35 42.8731 35 43.3333C35 43.7936 35.3731 44.1667 35.8333 44.1667Z" fill="#3362F5"/>
<path d="M27.5 28.3334C27.9602 28.3334 28.3333 27.9603 28.3333 27.5001C28.3333 27.0398 27.9602 26.6667 27.5 26.6667C27.0398 26.6667 26.6667 27.0398 26.6667 27.5001C26.6667 27.9603 27.0398 28.3334 27.5 28.3334Z" fill="#3362F5"/>
<path d="M29.1667 19.1667C29.6269 19.1667 30 18.7936 30 18.3333C30 17.8731 29.6269 17.5 29.1667 17.5C28.7064 17.5 28.3333 17.8731 28.3333 18.3333C28.3333 18.7936 28.7064 19.1667 29.1667 19.1667Z" fill="#3362F5"/>
<path d="M32.5 19.1667C32.9602 19.1667 33.3333 18.7936 33.3333 18.3333C33.3333 17.8731 32.9602 17.5 32.5 17.5C32.0398 17.5 31.6667 17.8731 31.6667 18.3333C31.6667 18.7936 32.0398 19.1667 32.5 19.1667Z" fill="#3362F5"/>
<path d="M30.8333 17.4999C31.2936 17.4999 31.6667 17.1268 31.6667 16.6666C31.6667 16.2063 31.2936 15.8333 30.8333 15.8333C30.3731 15.8333 30 16.2063 30 16.6666C30 17.1268 30.3731 17.4999 30.8333 17.4999Z" fill="#3362F5"/>
<path d="M32.5 15.8334C32.9602 15.8334 33.3333 15.4603 33.3333 15.0001C33.3333 14.5398 32.9602 14.1667 32.5 14.1667C32.0398 14.1667 31.6667 14.5398 31.6667 15.0001C31.6667 15.4603 32.0398 15.8334 32.5 15.8334Z" fill="#3362F5"/>
<path d="M29.1667 22.4999C29.6269 22.4999 30 22.1268 30 21.6666C30 21.2063 29.6269 20.8333 29.1667 20.8333C28.7064 20.8333 28.3333 21.2063 28.3333 21.6666C28.3333 22.1268 28.7064 22.4999 29.1667 22.4999Z" fill="#3362F5"/>
<path d="M27.5 20.8334C27.9602 20.8334 28.3333 20.4603 28.3333 20.0001C28.3333 19.5398 27.9602 19.1667 27.5 19.1667C27.0398 19.1667 26.6667 19.5398 26.6667 20.0001C26.6667 20.4603 27.0398 20.8334 27.5 20.8334Z" fill="#3362F5"/>
<path d="M30.8333 20.8334C31.2936 20.8334 31.6667 20.4603 31.6667 20.0001C31.6667 19.5398 31.2936 19.1667 30.8333 19.1667C30.3731 19.1667 30 19.5398 30 20.0001C30 20.4603 30.3731 20.8334 30.8333 20.8334Z" fill="#3362F5"/>
<path d="M27.5 30.8334C27.9602 30.8334 28.3333 30.4603 28.3333 30.0001C28.3333 29.5398 27.9602 29.1667 27.5 29.1667C27.0398 29.1667 26.6667 29.5398 26.6667 30.0001C26.6667 30.4603 27.0398 30.8334 27.5 30.8334Z" fill="#3362F5"/>
<path d="M27.5 33.3334C27.9602 33.3334 28.3333 32.9603 28.3333 32.5001C28.3333 32.0398 27.9602 31.6667 27.5 31.6667C27.0398 31.6667 26.6667 32.0398 26.6667 32.5001C26.6667 32.9603 27.0398 33.3334 27.5 33.3334Z" fill="#3362F5"/>
<path d="M27.5 35.8334C27.9602 35.8334 28.3333 35.4603 28.3333 35.0001C28.3333 34.5398 27.9602 34.1667 27.5 34.1667C27.0398 34.1667 26.6667 34.5398 26.6667 35.0001C26.6667 35.4603 27.0398 35.8334 27.5 35.8334Z" fill="#3362F5"/>
<path d="M27.5 38.3334C27.9602 38.3334 28.3333 37.9603 28.3333 37.5001C28.3333 37.0398 27.9602 36.6667 27.5 36.6667C27.0398 36.6667 26.6667 37.0398 26.6667 37.5001C26.6667 37.9603 27.0398 38.3334 27.5 38.3334Z" fill="#3362F5"/>
<path d="M27.5 40.8334C27.9602 40.8334 28.3333 40.4603 28.3333 40.0001C28.3333 39.5398 27.9602 39.1667 27.5 39.1667C27.0398 39.1667 26.6667 39.5398 26.6667 40.0001C26.6667 40.4603 27.0398 40.8334 27.5 40.8334Z" fill="#3362F5"/>
<path d="M30.8333 42.4999C31.2936 42.4999 31.6667 42.1268 31.6667 41.6666C31.6667 41.2063 31.2936 40.8333 30.8333 40.8333C30.3731 40.8333 30 41.2063 30 41.6666C30 42.1268 30.3731 42.4999 30.8333 42.4999Z" fill="#3362F5"/>
<path d="M34.1667 42.4999C34.6269 42.4999 35 42.1268 35 41.6666C35 41.2063 34.6269 40.8333 34.1667 40.8333C33.7064 40.8333 33.3333 41.2063 33.3333 41.6666C33.3333 42.1268 33.7064 42.4999 34.1667 42.4999Z" fill="#3362F5"/>
<path d="M20 9.16675H15.8333C15.3733 9.16675 15 9.53925 15 10.0001C15 10.4609 15.3733 10.8334 15.8333 10.8334H20C20.46 10.8334 20.8333 10.4609 20.8333 10.0001C20.8333 9.53925 20.46 9.16675 20 9.16675Z" fill="#3362F5"/>
<path d="M20 15H11.6667C11.2067 15 10.8333 15.3725 10.8333 15.8333C10.8333 16.2942 11.2067 16.6667 11.6667 16.6667H20C20.46 16.6667 20.8333 16.2942 20.8333 15.8333C20.8333 15.3725 20.46 15 20 15Z" fill="#3362F5"/>
<path d="M20 20.8333H7.49999C7.03999 20.8333 6.66666 21.2058 6.66666 21.6666C6.66666 22.1274 7.03999 22.4999 7.49999 22.4999H20C20.46 22.4999 20.8333 22.1274 20.8333 21.6666C20.8333 21.2058 20.46 20.8333 20 20.8333Z" fill="#3362F5"/>
<path d="M20 26.6667H4.16666C3.70666 26.6667 3.33333 27.0392 3.33333 27.5001C3.33333 27.9609 3.70666 28.3334 4.16666 28.3334H20C20.46 28.3334 20.8333 27.9609 20.8333 27.5001C20.8333 27.0392 20.46 26.6667 20 26.6667Z" fill="#3362F5"/>
<path d="M20 32.5H9.16666C8.70666 32.5 8.33333 32.8725 8.33333 33.3333C8.33333 33.7942 8.70666 34.1667 9.16666 34.1667H20C20.46 34.1667 20.8333 33.7942 20.8333 33.3333C20.8333 32.8725 20.46 32.5 20 32.5Z" fill="#3362F5"/>
<path d="M20 38.3333H14.1667C13.7067 38.3333 13.3333 38.7058 13.3333 39.1666C13.3333 39.6274 13.7067 39.9999 14.1667 39.9999H20C20.46 39.9999 20.8333 39.6274 20.8333 39.1666C20.8333 38.7058 20.46 38.3333 20 38.3333Z" fill="#3362F5"/>
<path d="M44.1667 45H40V40C40 33.6742 36.5442 27.9667 31.0717 25C36.5442 22.0333 40 16.3258 40 10V5H44.1667C45.545 5 46.6667 3.87833 46.6667 2.5C46.6667 1.12167 45.545 0 44.1667 0H25C24.54 0 24.1667 0.3725 24.1667 0.833333C24.1667 1.29417 24.54 1.66667 25 1.66667H44.1667C44.6258 1.66667 45 2.04 45 2.5C45 2.96 44.6258 3.33333 44.1667 3.33333H40H25C24.54 3.33333 24.1667 3.70583 24.1667 4.16667C24.1667 4.6275 24.54 5 25 5H38.3333V10C38.3333 16.2425 34.6108 21.8275 28.8492 24.2292C28.8483 24.2292 28.8483 24.2292 28.8475 24.23C28.8475 24.23 28.8467 24.2308 28.8458 24.2308C28.8367 24.235 28.8308 24.2425 28.8217 24.2475C28.7325 24.2883 28.6483 24.3417 28.5775 24.4125C28.5192 24.4708 28.48 24.5417 28.4425 24.6133C28.4292 24.6375 28.4083 24.6542 28.3975 24.68C28.3975 24.6808 28.3975 24.6817 28.3975 24.6817C28.3558 24.7825 28.3342 24.8908 28.3342 25.0008C28.3342 25.1108 28.3558 25.2192 28.3967 25.3192C28.3967 25.3192 28.3967 25.3208 28.3975 25.3217C28.4358 25.4142 28.4925 25.4925 28.5575 25.5625C28.5758 25.5817 28.5967 25.5967 28.6167 25.615C28.6742 25.6667 28.7358 25.7083 28.8042 25.7417C28.82 25.7492 28.83 25.7633 28.8467 25.77C34.6092 28.1708 38.3333 33.7567 38.3333 40V45C38.3333 44.54 37.96 44.1667 37.5 44.1667C37.04 44.1667 36.6667 44.54 36.6667 45H35C35 44.54 34.6267 44.1667 34.1667 44.1667C33.7067 44.1667 33.3333 44.54 33.3333 45H31.6667C31.6667 44.54 31.2933 44.1667 30.8333 44.1667C30.3733 44.1667 30 44.54 30 45H28.3333C28.3333 44.54 27.96 44.1667 27.5 44.1667C27.04 44.1667 26.6667 44.54 26.6667 45H25C24.54 45 24.1667 45.3725 24.1667 45.8333C24.1667 46.2942 24.54 46.6667 25 46.6667H40H44.1667C44.6258 46.6667 45 47.04 45 47.5C45 47.96 44.6258 48.3333 44.1667 48.3333H25C24.54 48.3333 24.1667 48.7058 24.1667 49.1667C24.1667 49.6275 24.54 50 25 50H44.1667C45.545 50 46.6667 48.8783 46.6667 47.5C46.6667 46.1217 45.545 45 44.1667 45Z" fill="#3362F5"/>
</svg>
