<svg width="130" height="130" viewBox="0 0 130 130" fill="none" xmlns="http://www.w3.org/2000/svg">
<circle cx="65" cy="65" r="65" fill="white" fill-opacity="0.05"/>
<circle cx="65" cy="65" r="50" fill="white" fill-opacity="0.08"/>
<g clip-path="url(#clip0)">
<g filter="url(#filter0_d)">
<path d="M95 59.8262L93.6179 58.4441L79.6303 72.4317C79.5775 72.3721 79.5355 72.3046 79.4788 72.2469L71.2543 64.0225L72.5182 62.7586L71.1361 61.3765L68.234 64.2786C66.6788 65.8328 64.2713 66.0478 62.4796 64.9228L69.5829 57.8752C69.5838 57.8742 69.5838 57.8733 69.5848 57.8723L88.1567 39.3004L86.7746 37.9182L68.8947 55.7981L67.6309 54.5342C67.4481 54.3505 67.1988 54.2478 66.9398 54.2478H63.4346L61.766 52.5793L48.0815 38.8947L46.6993 40.2768L55.783 49.3605L43.2811 61.8623L36.3215 55.4824L35 56.9241L46.4129 67.385V69.8873C46.4129 70.1464 46.5156 70.3956 46.6993 70.5784L50.9269 74.806C50.5408 75.3269 50.3228 75.9506 50.3228 76.6113C50.3228 78.2574 51.6346 79.5936 53.266 79.6513C53.3227 81.2465 54.6031 82.527 56.1984 82.5837C56.2551 84.1789 57.5356 85.4594 59.1308 85.5161C59.1885 87.1475 60.5256 88.4593 62.1707 88.4593C62.5861 88.4593 62.9889 88.3742 63.3603 88.2168L63.4346 88.2911C64.1726 89.0301 65.1549 89.4367 66.1998 89.4367C67.2448 89.4367 68.2261 89.0301 68.9641 88.2911L79.4788 77.7765C80.2177 77.0375 80.6244 76.0561 80.6244 75.0122C80.6244 74.762 80.598 74.5156 80.552 74.2742L95 59.8262ZM44.7239 63.1848L57.1651 50.7426L59.6928 53.2703L47.3611 65.6021L44.7239 63.1848ZM54.1486 77.3865C53.9414 77.5927 53.6667 77.7071 53.3735 77.7071C52.7694 77.7071 52.2777 77.2154 52.2777 76.6113C52.2777 76.3181 52.3921 76.0434 52.5984 75.8362L57.2492 71.1854C57.4564 70.9792 57.731 70.8648 58.0243 70.8648C58.6284 70.8648 59.12 71.3565 59.12 71.9605C59.12 72.2538 59.0057 72.5285 58.7994 72.7357L54.1486 77.3865ZM57.081 80.3189C56.8738 80.5251 56.5991 80.6395 56.3059 80.6395C55.7018 80.6395 55.2102 80.1478 55.2102 79.5438C55.2102 79.2505 55.3245 78.9758 55.5308 78.7686L60.1816 74.1178C60.3888 73.9116 60.6635 73.7972 60.9567 73.7972C61.5608 73.7972 62.0524 74.2889 62.0524 74.893C62.0524 75.1862 61.9381 75.4609 61.7318 75.6681L57.081 80.3189ZM60.0134 83.2513C59.8062 83.4575 59.5315 83.5719 59.2383 83.5719C58.6342 83.5719 58.1426 83.0802 58.1426 82.4762C58.1426 82.1829 58.2569 81.9082 58.4632 81.701L63.114 77.0502C63.3212 76.844 63.5959 76.7296 63.8891 76.7296C64.4932 76.7296 64.9848 77.2213 64.9848 77.8254C64.9848 78.1186 64.8705 78.3933 64.6642 78.6005L60.0134 83.2513ZM62.9458 86.1837C62.7386 86.3899 62.464 86.5043 62.1707 86.5043C61.5666 86.5043 61.075 86.0126 61.075 85.4086C61.075 85.1153 61.1893 84.8407 61.3956 84.6334L66.0464 79.9826C66.2536 79.7764 66.5283 79.662 66.8215 79.662C67.4256 79.662 67.9173 80.1537 67.9173 80.7578C67.9173 81.051 67.8029 81.3257 67.5966 81.5329L62.9458 86.1837ZM78.0966 76.3943L67.582 86.909C66.8714 87.6196 65.6593 87.6392 64.9106 86.9842L68.9798 82.915C69.5545 82.3393 69.8722 81.573 69.8722 80.7578C69.8722 79.1117 68.5604 77.7755 66.929 77.7178C66.8723 76.1226 65.5919 74.8421 63.9966 74.7854C63.9399 73.1902 62.6595 71.9097 61.0642 71.853C61.0065 70.2216 59.6694 68.9099 58.0243 68.9099C57.2091 68.9099 56.4427 69.2275 55.867 69.8033L52.2777 73.3925L48.3679 69.4827V67.3596L61.075 54.6525L62.3388 55.9164C62.5216 56.1001 62.7709 56.2028 63.0299 56.2028H66.5351L67.5097 57.1773L60.3253 64.306C60.1405 64.4897 60.0359 64.741 60.0369 65.0019C60.0379 65.2629 60.1425 65.5132 60.3282 65.6959C62.898 68.2276 67.0659 68.2119 69.6161 65.6598L69.8722 65.4047L78.0966 73.6291C78.4661 73.9986 78.6694 74.4893 78.6694 75.0122C78.6694 75.5352 78.4661 76.0249 78.0966 76.3943Z" fill="#3362F5"/>
</g>
<path d="M42.5031 51.3154C40.8863 51.3154 39.5706 52.6311 39.5706 54.2478C39.5706 55.8646 40.8863 57.1802 42.5031 57.1802C44.1198 57.1802 45.4355 55.8646 45.4355 54.2478C45.4355 52.6311 44.1198 51.3154 42.5031 51.3154ZM42.5031 55.2253C41.9645 55.2253 41.5256 54.7864 41.5256 54.2478C41.5256 53.7093 41.9645 53.2704 42.5031 53.2704C43.0416 53.2704 43.4805 53.7093 43.4805 54.2478C43.4805 54.7864 43.0416 55.2253 42.5031 55.2253Z" fill="white"/>
<path d="M41.8159 77.6475L40.1004 78.5858C40.422 79.1733 40.77 79.7588 41.1346 80.3248L42.7787 79.2671C42.4385 78.7393 42.115 78.1948 41.8159 77.6475Z" fill="white"/>
<path d="M55.7634 89.7358L55.0782 91.5666C55.7048 91.8012 56.3509 92.0163 56.9999 92.2059L57.5493 90.3301C56.9462 90.1532 56.346 89.9538 55.7634 89.7358Z" fill="white"/>
<path d="M49.1674 86.1279L47.9935 87.6919C48.5311 88.0956 49.0912 88.4846 49.6562 88.8482L50.7138 87.2041C50.1879 86.8649 49.6669 86.5033 49.1674 86.1279Z" fill="white"/>
<path d="M52.3354 88.1689L51.3971 89.8834C51.9855 90.205 52.5945 90.511 53.2073 90.7915L54.0216 89.0145C53.4507 88.7525 52.8838 88.4681 52.3354 88.1689Z" fill="white"/>
<path d="M46.3201 83.6589L44.937 85.0401C45.412 85.5161 45.9105 85.9804 46.4178 86.4203L47.6993 84.9433C47.2262 84.5338 46.7629 84.1008 46.3201 83.6589Z" fill="white"/>
<path d="M43.852 80.8125L42.288 81.9855C42.6927 82.525 43.1199 83.0548 43.5578 83.5602L45.0347 82.2787C44.6281 81.8085 44.2303 81.3149 43.852 80.8125Z" fill="white"/>
<path d="M38.6596 66.8875L36.7096 67.0262C36.7565 67.6958 36.8288 68.3722 36.9237 69.0379L38.859 68.7622C38.7711 68.1415 38.7036 67.5111 38.6596 66.8875Z" fill="white"/>
<path d="M36.7096 62.9805C36.6617 63.6451 36.6382 64.3245 36.6382 64.9999V65.0029L38.5932 64.9999C38.5932 64.3704 38.6157 63.737 38.6597 63.1193L36.7096 62.9805Z" fill="white"/>
<path d="M39.1914 70.6145L37.2814 71.0299C37.4241 71.6878 37.5922 72.3476 37.7809 72.9907L39.6567 72.4414C39.4817 71.8422 39.3253 71.2274 39.1914 70.6145Z" fill="white"/>
<path d="M40.251 74.2273L38.4192 74.9115C38.6538 75.5391 38.9138 76.1676 39.1933 76.7785L40.9714 75.9662C40.7114 75.3963 40.4689 74.8118 40.251 74.2273Z" fill="white"/>
<path d="M88.9983 75.9651C88.7364 76.5359 88.4519 77.1029 88.1519 77.6512L89.8673 78.5896C90.1889 78.0012 90.4949 77.3922 90.7754 76.7793L88.9983 75.9651Z" fill="white"/>
<path d="M87.189 79.272C86.8489 79.7998 86.4862 80.3198 86.1119 80.8193L87.6758 81.9932C88.0785 81.4576 88.4676 80.8975 88.8331 80.3306L87.189 79.272Z" fill="white"/>
<path d="M84.9272 82.2854C84.5176 82.7585 84.0856 83.2228 83.6428 83.6646L85.024 85.0477C85.5 84.5727 85.9643 84.0742 86.4041 83.5669L84.9272 82.2854Z" fill="white"/>
<path d="M90.315 72.4365C90.1381 73.0377 89.9387 73.6388 89.7207 74.2233L91.5515 74.9076C91.7871 74.2791 92.0011 73.632 92.1908 72.9859L90.315 72.4365Z" fill="white"/>
<path d="M91.1116 68.7573C91.0227 69.379 90.9103 70.0026 90.7783 70.6116L92.6893 71.0251C92.831 70.3711 92.9512 69.7016 93.046 69.033L91.1116 68.7573Z" fill="white"/>
<path d="M82.2626 84.95C81.7914 85.3585 81.2978 85.7564 80.7954 86.1337L81.9684 87.6976C82.507 87.2939 83.0367 86.8668 83.5431 86.4279L82.2626 84.95Z" fill="white"/>
<path d="M59.3752 90.7952L58.9617 92.7051C59.6156 92.8469 60.2852 92.9671 60.9538 93.0619L61.2294 91.1275C60.6078 91.0386 59.9841 90.9261 59.3752 90.7952Z" fill="white"/>
<path d="M91.3765 65C91.3765 65.6285 91.355 66.2629 91.311 66.8836L93.2611 67.0214C93.308 66.3538 93.3315 65.6735 93.3315 65H91.3765Z" fill="white"/>
<path d="M68.7452 91.1257C68.1255 91.2137 67.495 91.2812 66.8704 91.3251L67.0092 93.2752C67.6788 93.2283 68.3552 93.1559 69.0208 93.0611L68.7452 91.1257Z" fill="white"/>
<path d="M64.9848 91.3914C64.3563 91.3914 63.7239 91.3699 63.1032 91.3259L62.9654 93.276C63.632 93.3229 64.3123 93.3464 64.9858 93.3464L64.9848 91.3914Z" fill="white"/>
<path d="M79.25 87.208C78.7261 87.5452 78.1817 87.8688 77.6313 88.1698L78.5697 89.8853C79.1601 89.5618 79.7446 89.2147 80.3077 88.8521L79.25 87.208Z" fill="white"/>
<path d="M75.9492 89.0134C75.3793 89.2734 74.7948 89.5168 74.2112 89.7338L74.8945 91.5656C75.522 91.331 76.1505 91.071 76.7614 90.7914L75.9492 89.0134Z" fill="white"/>
<path d="M72.4244 90.3291C71.8252 90.5041 71.2113 90.6605 70.5975 90.7944L71.0129 92.7043C71.6707 92.5616 72.3305 92.3935 72.9737 92.2049L72.4244 90.3291Z" fill="white"/>
<path d="M76.387 39.1321L75.5259 40.8876C76.0684 41.1535 76.6265 41.4536 77.1846 41.7791L78.1699 40.09C77.5707 39.741 76.9706 39.4185 76.387 39.1321Z" fill="white"/>
<path d="M64.9848 36.6533L64.5763 36.6563L64.6046 38.6112L64.9848 38.6083C65.501 38.6083 66.0053 38.62 66.498 38.6434L66.5899 36.6905C66.0669 36.666 65.5332 36.6533 64.9848 36.6533Z" fill="white"/>
<path d="M72.5935 37.6533L72.0451 39.5301C72.6365 39.7031 73.2308 39.9054 73.8114 40.1322L74.524 38.3121C73.8896 38.0639 73.2405 37.8429 72.5935 37.6533Z" fill="white"/>
<path d="M68.6044 36.8538L68.3777 38.795C69.0091 38.8693 69.6327 38.967 70.2309 39.0863L70.6122 37.1685C69.9641 37.0395 69.2887 36.9339 68.6044 36.8538Z" fill="white"/>
<path d="M54.6931 38.5789C54.0665 38.8232 53.4419 39.093 52.8359 39.3814L53.6736 41.1476C54.2386 40.8798 54.8211 40.6276 55.4047 40.3999L54.6931 38.5789Z" fill="white"/>
<path d="M58.559 37.3855C57.9031 37.538 57.2453 37.7149 56.605 37.9133L57.1827 39.7813C57.778 39.5965 58.3899 39.4313 59.0008 39.2896L58.559 37.3855Z" fill="white"/>
<path d="M62.5558 36.7561C61.8843 36.8138 61.2079 36.8949 60.5462 36.9995L60.8511 38.931C61.466 38.8332 62.0955 38.757 62.721 38.7042L62.5558 36.7561Z" fill="white"/>
</g>
<defs>
<filter id="filter0_d" x="30" y="32.9182" width="70" height="61.5185" filterUnits="userSpaceOnUse" color-interpolation-filters="sRGB">
<feFlood flood-opacity="0" result="BackgroundImageFix"/>
<feColorMatrix in="SourceAlpha" type="matrix" values="0 0 0 0 0 0 0 0 0 0 0 0 0 0 0 0 0 0 127 0"/>
<feOffset/>
<feGaussianBlur stdDeviation="2.5"/>
<feColorMatrix type="matrix" values="0 0 0 0 0.2 0 0 0 0 0.384314 0 0 0 0 0.960784 0 0 0 0.35 0"/>
<feBlend mode="normal" in2="BackgroundImageFix" result="effect1_dropShadow"/>
<feBlend mode="normal" in="SourceGraphic" in2="effect1_dropShadow" result="shape"/>
</filter>
<clipPath id="clip0">
<rect width="60" height="60" fill="white" transform="translate(35 35)"/>
</clipPath>
</defs>
</svg>
