<svg width="130" height="130" viewBox="0 0 130 130" fill="none" xmlns="http://www.w3.org/2000/svg">
<circle cx="65" cy="65" r="65" fill="white" fill-opacity="0.05"/>
<circle cx="65" cy="65" r="50" fill="white" fill-opacity="0.08"/>
<path d="M41.8158 77.6475L40.1003 78.5858C40.4219 79.1733 40.7699 79.7588 41.1345 80.3248L42.7786 79.2671C42.4384 78.7393 42.1149 78.1948 41.8158 77.6475Z" fill="white"/>
<path d="M55.7633 89.7358L55.0781 91.5666C55.7047 91.8012 56.3508 92.0163 56.9998 92.2059L57.5492 90.3301C56.9461 90.1532 56.3459 89.9538 55.7633 89.7358Z" fill="white"/>
<path d="M49.1673 86.1279L47.9934 87.6919C48.531 88.0956 49.0911 88.4846 49.6561 88.8482L50.7137 87.2041C50.1878 86.8649 49.6668 86.5033 49.1673 86.1279Z" fill="white"/>
<path d="M52.3353 88.1689L51.397 89.8834C51.9854 90.205 52.5944 90.511 53.2072 90.7915L54.0215 89.0145C53.4506 88.7525 52.8837 88.4681 52.3353 88.1689Z" fill="white"/>
<path d="M38.6596 66.8875L36.7096 67.0262C36.7565 67.6958 36.8288 68.3722 36.9237 69.0379L38.859 68.7622C38.7711 68.1415 38.7036 67.5111 38.6596 66.8875Z" fill="white"/>
<path d="M36.7095 62.9805C36.6616 63.6451 36.6382 64.3245 36.6382 64.9999V65.0029L38.5931 64.9999C38.5931 64.3704 38.6156 63.737 38.6596 63.1193L36.7095 62.9805Z" fill="white"/>
<path d="M39.1913 70.6145L37.2814 71.0299C37.4241 71.6878 37.5922 72.3476 37.7809 72.9907L39.6566 72.4414C39.4817 71.8422 39.3253 71.2274 39.1913 70.6145Z" fill="white"/>
<path d="M40.2508 74.2273L38.4191 74.9115C38.6537 75.5391 38.9137 76.1676 39.1932 76.7785L40.9712 75.9662C40.7112 75.3963 40.4688 74.8118 40.2508 74.2273Z" fill="white"/>
<path d="M88.9983 75.9651C88.7364 76.5359 88.4519 77.1029 88.1519 77.6512L89.8673 78.5896C90.1889 78.0012 90.4949 77.3922 90.7754 76.7793L88.9983 75.9651Z" fill="white"/>
<path d="M87.189 79.272C86.8488 79.7998 86.4862 80.3198 86.1118 80.8193L87.6758 81.9932C88.0785 81.4576 88.4675 80.8975 88.8331 80.3306L87.189 79.272Z" fill="white"/>
<path d="M84.9271 82.2856C84.5175 82.7587 84.0855 83.223 83.6427 83.6649L85.0239 85.048C85.4999 84.5729 85.9642 84.0744 86.4041 83.5671L84.9271 82.2856Z" fill="white"/>
<path d="M90.3149 72.4365C90.138 73.0377 89.9386 73.6388 89.7206 74.2233L91.5514 74.9076C91.7869 74.2791 92.001 73.632 92.1906 72.9859L90.3149 72.4365Z" fill="white"/>
<path d="M91.1115 68.7573C91.0226 69.379 90.9102 70.0026 90.7782 70.6116L92.6891 71.0251C92.8309 70.3711 92.9511 69.7016 93.0459 69.033L91.1115 68.7573Z" fill="white"/>
<path d="M59.3751 90.7952L58.9617 92.7051C59.6156 92.8469 60.2852 92.9671 60.9538 93.0619L61.2294 91.1275C60.6077 91.0386 59.9841 90.9261 59.3751 90.7952Z" fill="white"/>
<path d="M91.3765 65C91.3765 65.6285 91.355 66.2629 91.311 66.8836L93.2611 67.0214C93.308 66.3538 93.3315 65.6735 93.3315 65H91.3765Z" fill="white"/>
<path d="M68.7452 91.1257C68.1254 91.2137 67.495 91.2812 66.8704 91.3251L67.0092 93.2752C67.6787 93.2283 68.3551 93.1559 69.0208 93.0611L68.7452 91.1257Z" fill="white"/>
<path d="M64.9848 91.3914C64.3563 91.3914 63.7238 91.3699 63.1032 91.3259L62.9653 93.276C63.632 93.3229 64.3123 93.3464 64.9858 93.3464L64.9848 91.3914Z" fill="white"/>
<path d="M79.25 87.208C78.7261 87.5452 78.1817 87.8688 77.6313 88.1698L78.5697 89.8853C79.1601 89.5618 79.7446 89.2147 80.3077 88.8521L79.25 87.208Z" fill="white"/>
<path d="M75.9491 89.0134C75.3793 89.2734 74.7947 89.5168 74.2112 89.7338L74.8944 91.5656C75.522 91.331 76.1505 91.071 76.7614 90.7914L75.9491 89.0134Z" fill="white"/>
<path d="M72.4243 90.3291C71.8251 90.5041 71.2113 90.6605 70.5974 90.7944L71.0128 92.7043C71.6707 92.5616 72.3305 92.3935 72.9736 92.2049L72.4243 90.3291Z" fill="white"/>
<path d="M88.1539 52.949L89.8694 52.0106C89.5478 51.4231 89.1998 50.8376 88.8352 50.2717L87.1911 51.3293C87.5313 51.8571 87.8548 52.4016 88.1539 52.949Z" fill="white"/>
<path d="M74.2064 40.8606L74.8916 39.0298C74.265 38.7952 73.6189 38.5802 72.9699 38.3905L72.4206 40.2663C73.0237 40.4432 73.6238 40.6426 74.2064 40.8606Z" fill="white"/>
<path d="M80.8024 44.4685L81.9763 42.9046C81.4387 42.5009 80.8786 42.1118 80.3136 41.7482L79.256 43.3923C79.7819 43.7315 80.3029 44.0932 80.8024 44.4685Z" fill="white"/>
<path d="M77.6344 42.4275L78.5728 40.713C77.9843 40.3914 77.3754 40.0855 76.7625 39.8049L75.9483 41.582C76.5191 41.8439 77.086 42.1284 77.6344 42.4275Z" fill="white"/>
<path d="M83.6497 46.9375L85.0328 45.5563C84.5578 45.0803 84.0593 44.616 83.552 44.1761L82.2705 45.6531C82.7436 46.0627 83.2069 46.4957 83.6497 46.9375Z" fill="white"/>
<path d="M86.1178 49.7839L87.6818 48.611C87.2771 48.0714 86.8499 47.5416 86.412 47.0363L84.9351 48.3177C85.3417 48.7879 85.7395 49.2815 86.1178 49.7839Z" fill="white"/>
<path d="M91.3101 63.709L93.2601 63.5702C93.2132 62.9006 93.1409 62.2242 93.0461 61.5586L91.1107 61.8342C91.1987 62.4549 91.2661 63.0854 91.3101 63.709Z" fill="white"/>
<path d="M93.2602 67.616C93.3081 66.9513 93.3315 66.2719 93.3315 65.5965L93.3315 65.5936L91.3766 65.5965C91.3766 66.226 91.3541 66.8594 91.3101 67.4772L93.2602 67.616Z" fill="white"/>
<path d="M90.7784 59.9819L92.6884 59.5665C92.5456 58.9087 92.3775 58.2489 92.1889 57.6057L90.3131 58.155C90.4881 58.7542 90.6445 59.3691 90.7784 59.9819Z" fill="white"/>
<path d="M89.7189 56.3691L91.5507 55.6849C91.3161 55.0574 91.0561 54.4289 90.7765 53.8179L88.9985 54.6302C89.2585 55.2001 89.5009 55.7846 89.7189 56.3691Z" fill="white"/>
<path d="M40.9714 54.6313C41.2333 54.0605 41.5178 53.4936 41.8179 52.9452L40.1024 52.0068C39.7808 52.5953 39.4749 53.2042 39.1943 53.8171L40.9714 54.6313Z" fill="white"/>
<path d="M42.7807 51.3245C43.1209 50.7966 43.4835 50.2766 43.8579 49.7771L42.294 48.6032C41.8912 49.1388 41.5022 49.6989 41.1366 50.2659L42.7807 51.3245Z" fill="white"/>
<path d="M39.6548 58.1599C39.8318 57.5588 40.0312 56.9576 40.2491 56.3731L38.4183 55.6889C38.1828 56.3174 37.9687 56.9645 37.7791 57.6106L39.6548 58.1599Z" fill="white"/>
<path d="M38.8582 61.8391C38.9472 61.2174 39.0596 60.5938 39.1915 59.9849L37.2806 59.5714C37.1388 60.2253 37.0186 60.8949 36.9238 61.5635L38.8582 61.8391Z" fill="white"/>
<path d="M70.5946 39.8013L71.0081 37.8913C70.3541 37.7496 69.6846 37.6293 69.016 37.5345L68.7403 39.4689C69.362 39.5579 69.9856 39.6703 70.5946 39.8013Z" fill="white"/>
<path d="M38.5933 65.5212C38.5933 64.8927 38.6148 64.2583 38.6588 63.6377L36.7088 63.4998C36.6618 64.1674 36.6384 64.8478 36.6384 65.5212L38.5933 65.5212Z" fill="white"/>
<path d="M61.2246 39.4707C61.8443 39.3827 62.4748 39.3153 63.0994 39.2713L62.9606 37.3212C62.291 37.3682 61.6146 37.4405 60.9489 37.5353L61.2246 39.4707Z" fill="white"/>
<path d="M64.9849 39.205C65.6135 39.205 66.2459 39.2265 66.8666 39.2705L67.0044 37.3205C66.3378 37.2735 65.6574 37.2501 64.984 37.2501L64.9849 39.205Z" fill="white"/>
<path d="M50.7197 43.3884C51.2436 43.0512 51.7881 42.7277 52.3384 42.4266L51.4 40.7111C50.8096 41.0347 50.2251 41.3817 49.6621 41.7443L50.7197 43.3884Z" fill="white"/>
<path d="M54.0206 41.583C54.5905 41.323 55.175 41.0796 55.7585 40.8626L55.0753 39.0308C54.4478 39.2654 53.8192 39.5254 53.2083 39.805L54.0206 41.583Z" fill="white"/>
<path d="M57.5454 40.2673C58.1446 40.0924 58.7585 39.936 59.3723 39.8021L58.9569 37.8921C58.2991 38.0348 57.6393 38.2029 56.9961 38.3916L57.5454 40.2673Z" fill="white"/>
<g filter="url(#filter0_d)">
<path d="M85.2505 60.4281H83.9441V58.5488C83.9441 57.0472 82.9264 55.7446 81.4697 55.3801L78.7178 54.6924V54.3789C79.9352 53.5282 80.6781 52.1252 80.6781 50.63V49.4875C80.6781 46.9499 78.6898 44.8263 76.246 44.753C74.98 44.708 73.8159 45.173 72.9212 46.0419C72.0263 46.9107 71.5332 48.0761 71.5332 49.3235V50.63C71.5332 52.1245 72.275 53.5276 73.4928 54.3782V54.6924L70.7412 55.3801C69.2846 55.7446 68.2671 57.0472 68.2671 58.5488V60.4281H66.9607V64.3473H68.2671V76.1051H71.5332V76.7583C71.5332 77.7793 72.0256 78.7441 72.8396 79.3574V79.5319L70.6356 80.1609C69.9333 80.3621 69.3381 80.7901 68.9203 81.3499C68.5015 80.7901 67.907 80.3615 67.2044 80.1609L65.0011 79.5319V79.3574C65.8147 78.7441 66.3075 77.7793 66.3075 76.7583V75.5871C66.3075 73.8313 65.0004 72.3434 63.332 72.1983C62.415 72.1185 61.507 72.4276 60.8346 73.0435C60.1613 73.6616 59.7754 74.5394 59.7754 75.4519V76.7583C59.7754 77.7793 60.2679 78.7441 61.0818 79.3574V79.5319L58.8779 80.1609C58.1755 80.3621 57.5804 80.7901 57.1626 81.3499C56.7438 80.7901 56.1493 80.3615 55.4466 80.1609L53.2433 79.5319V79.3574C54.0569 78.7441 54.5497 77.7793 54.5497 76.7583V75.5871C54.5497 73.8313 53.2427 72.3434 51.5742 72.1983C50.6566 72.1185 49.7492 72.4276 49.0769 73.0435C48.4036 73.6616 48.0176 74.5394 48.0176 75.4519V76.7583C48.0176 77.7793 48.5101 78.7441 49.324 79.3574V79.5319L47.1201 80.1609C45.7253 80.5602 44.7516 81.8516 44.7516 83.3022V85.25H81.3313V83.3022C81.3313 81.8516 80.3572 80.5608 78.9621 80.1609L76.7588 79.5319V79.3574C77.5725 78.7441 78.0652 77.7793 78.0652 76.7583V76.1051H83.9441V64.3473H85.2505V60.4281ZM69.5735 58.5488C69.5735 57.6481 70.1843 56.8664 71.0576 56.6479L74.7992 55.7127V53.6447L74.4732 53.4558C73.4654 52.8718 72.8396 51.7887 72.8396 50.63V49.3235C72.8396 48.4327 73.1914 47.5999 73.8318 46.9799C74.4713 46.3592 75.3172 46.0368 76.2067 46.0594C77.9514 46.1117 79.3717 47.6494 79.3717 49.4875V50.63C79.3717 51.7893 78.7452 52.8725 77.7364 53.4558L77.4098 53.6453L77.4127 55.7127L81.1536 56.6479C82.0269 56.8664 82.6377 57.6481 82.6377 58.5488V60.4281H69.5735V58.5488ZM56.5093 83.9436H46.058V83.3022C46.058 82.4321 46.6426 81.6567 47.4792 81.4178L50.6305 80.5168V78.6331L50.3058 78.4443C49.6912 78.0864 49.324 77.4562 49.324 76.7583V75.4519C49.324 74.9039 49.5553 74.3773 49.96 74.007C50.3689 73.6323 50.906 73.4518 51.4613 73.5002C52.4606 73.587 53.2433 74.5037 53.2433 75.5871V76.7583C53.2433 77.4562 52.8762 78.0864 52.2613 78.4443L51.9369 78.6331V80.5168L55.0872 81.4178C55.9247 81.6567 56.5093 82.4321 56.5093 83.3022V83.9436ZM68.2671 83.9436H57.8158V83.3022C57.8158 82.4321 58.4004 81.6567 59.237 81.4178L62.3882 80.5168V78.6331L62.0635 78.4443C61.4489 78.0864 61.0818 77.4562 61.0818 76.7583V75.4519C61.0818 74.9039 61.3131 74.3773 61.7178 74.007C62.1273 73.6323 62.6613 73.4518 63.2191 73.5002C64.2184 73.587 65.0011 74.5037 65.0011 75.5871V76.7583C65.0011 77.4562 64.634 78.0864 64.019 78.4443L63.6946 78.6331V80.5168L66.8449 81.4178C67.6825 81.6567 68.2671 82.4321 68.2671 83.3022V83.9436ZM76.7588 76.7583C76.7588 77.4562 76.3917 78.0864 75.7768 78.4443L75.4524 78.6331V80.5168L78.6027 81.4178C79.4402 81.6567 80.0249 82.4321 80.0249 83.3022V83.9436H69.5735V83.3022C69.5735 82.4321 70.1582 81.6567 70.9948 81.4178L74.146 80.5168V78.6331L73.8213 78.4443C73.2067 78.0864 72.8396 77.4562 72.8396 76.7583V75.4519C72.8396 74.9039 73.0708 74.3773 73.4756 74.007C73.8851 73.6323 74.4197 73.4518 74.9769 73.5002C75.9761 73.587 76.7588 74.5037 76.7588 75.5871V76.7583ZM82.6377 74.7987H77.9651C77.6426 73.4068 76.5002 72.3211 75.0904 72.1989C74.1712 72.1192 73.2654 72.4282 72.5933 73.0441C72.0818 73.512 71.7389 74.1298 71.6017 74.7987H69.5735V64.3473H82.6377V74.7987ZM83.9441 63.0409H68.2671V61.7345H83.9441V63.0409Z" fill="#3362F5"/>
</g>
<g filter="url(#filter1_d)">
<path d="M46.058 61.7349H55.2029V65.747C54.0786 66.0391 53.2433 67.0527 53.2433 68.267C53.2433 69.708 54.4151 70.8798 55.8561 70.8798C57.2972 70.8798 58.469 69.708 58.469 68.267C58.469 67.0527 57.6333 66.0391 56.5094 65.747V61.7349H65.6543V48.6707H66.9607V44.7515H44.7516V48.6707H46.058V61.7349ZM57.1626 68.267C57.1626 68.9875 56.5766 69.5734 55.8561 69.5734C55.1356 69.5734 54.5497 68.9875 54.5497 68.267C54.5497 67.5465 55.1356 66.9606 55.8561 66.9606C56.5766 66.9606 57.1626 67.5465 57.1626 68.267ZM64.3479 60.4285H47.3644V48.6707H64.3479V60.4285ZM46.058 46.0579H65.6543V47.3643H46.058V46.0579Z" fill="#3362F5"/>
</g>
<path d="M63.0411 49.9766H59.1218V59.1215H63.0411V49.9766ZM61.7347 57.8151H60.4282V51.283H61.7347V57.8151Z" fill="white"/>
<path d="M57.8154 51.283H53.8961V59.1215H57.8154V51.283ZM56.509 57.815H55.2025V52.5894H56.509V57.815Z" fill="white"/>
<path d="M52.5897 53.896H48.6704V59.1217H52.5897V53.896ZM51.2832 57.8153H49.9768V55.2024H51.2832V57.8153Z" fill="white"/>
<defs>
<filter id="filter0_d" x="39.7516" y="39.75" width="50.499" height="50.5" filterUnits="userSpaceOnUse" color-interpolation-filters="sRGB">
<feFlood flood-opacity="0" result="BackgroundImageFix"/>
<feColorMatrix in="SourceAlpha" type="matrix" values="0 0 0 0 0 0 0 0 0 0 0 0 0 0 0 0 0 0 127 0"/>
<feOffset/>
<feGaussianBlur stdDeviation="2.5"/>
<feColorMatrix type="matrix" values="0 0 0 0 0.2 0 0 0 0 0.384314 0 0 0 0 0.960784 0 0 0 0.35 0"/>
<feBlend mode="normal" in2="BackgroundImageFix" result="effect1_dropShadow"/>
<feBlend mode="normal" in="SourceGraphic" in2="effect1_dropShadow" result="shape"/>
</filter>
<filter id="filter1_d" x="39.7516" y="39.7515" width="32.2091" height="36.1284" filterUnits="userSpaceOnUse" color-interpolation-filters="sRGB">
<feFlood flood-opacity="0" result="BackgroundImageFix"/>
<feColorMatrix in="SourceAlpha" type="matrix" values="0 0 0 0 0 0 0 0 0 0 0 0 0 0 0 0 0 0 127 0"/>
<feOffset/>
<feGaussianBlur stdDeviation="2.5"/>
<feColorMatrix type="matrix" values="0 0 0 0 0.2 0 0 0 0 0.384314 0 0 0 0 0.960784 0 0 0 0.35 0"/>
<feBlend mode="normal" in2="BackgroundImageFix" result="effect1_dropShadow"/>
<feBlend mode="normal" in="SourceGraphic" in2="effect1_dropShadow" result="shape"/>
</filter>
</defs>
</svg>
