<svg width="130" height="130" viewBox="0 0 130 130" fill="none" xmlns="http://www.w3.org/2000/svg">
<circle cx="65" cy="65" r="65" fill="white" fill-opacity="0.05"/>
<circle cx="65" cy="65" r="50" fill="white" fill-opacity="0.08"/>
<path d="M42.8159 77.6475L41.1005 78.5858C41.4221 79.1733 41.77 79.7588 42.1346 80.3248L43.7787 79.2671C43.4386 78.7393 43.115 78.1948 42.8159 77.6475Z" fill="white"/>
<path d="M56.7634 89.7358L56.0782 91.5666C56.7047 91.8012 57.3509 92.0163 57.9999 92.2059L58.5492 90.3301C57.9461 90.1532 57.346 89.9538 56.7634 89.7358Z" fill="white"/>
<path d="M50.1675 86.1279L48.9935 87.6919C49.5311 88.0956 50.0912 88.4846 50.6562 88.8482L51.7138 87.2041C51.188 86.8649 50.667 86.5033 50.1675 86.1279Z" fill="white"/>
<path d="M53.3355 88.1689L52.3971 89.8834C52.9855 90.205 53.5945 90.511 54.2074 90.7915L55.0216 89.0145C54.4508 88.7525 53.8838 88.4681 53.3355 88.1689Z" fill="white"/>
<path d="M47.3201 83.6589L45.937 85.0401C46.412 85.5161 46.9105 85.9804 47.4178 86.4203L48.6993 84.9433C48.2262 84.5338 47.7629 84.1008 47.3201 83.6589Z" fill="white"/>
<path d="M44.852 80.8125L43.288 81.9855C43.6927 82.525 44.1199 83.0548 44.5578 83.5602L46.0347 82.2787C45.6281 81.8085 45.2303 81.3149 44.852 80.8125Z" fill="white"/>
<path d="M39.6596 66.8875L37.7096 67.0262C37.7565 67.6958 37.8288 68.3722 37.9237 69.0379L39.859 68.7622C39.7711 68.1415 39.7036 67.5111 39.6596 66.8875Z" fill="white"/>
<path d="M37.7096 62.9805C37.6617 63.6451 37.6382 64.3245 37.6382 64.9999V65.0029L39.5932 64.9999C39.5932 64.3704 39.6157 63.737 39.6597 63.1193L37.7096 62.9805Z" fill="white"/>
<path d="M40.1914 70.6145L38.2814 71.0299C38.4241 71.6878 38.5923 72.3476 38.7809 72.9907L40.6567 72.4414C40.4817 71.8422 40.3253 71.2274 40.1914 70.6145Z" fill="white"/>
<path d="M41.251 74.2273L39.4192 74.9115C39.6538 75.5391 39.9138 76.1676 40.1933 76.7785L41.9714 75.9662C41.7114 75.3963 41.4689 74.8118 41.251 74.2273Z" fill="white"/>
<path d="M91.315 72.4365C91.1381 73.0377 90.9387 73.6388 90.7207 74.2233L92.5515 74.9076C92.7871 74.2791 93.0011 73.632 93.1908 72.9859L91.315 72.4365Z" fill="white"/>
<path d="M92.1116 68.7573C92.0227 69.379 91.9103 70.0026 91.7783 70.6116L93.6893 71.0251C93.831 70.3711 93.9512 69.7016 94.046 69.033L92.1116 68.7573Z" fill="white"/>
<path d="M83.2626 84.9502C82.7914 85.3588 82.2978 85.7566 81.7954 86.1339L82.9684 87.6979C83.507 87.2942 84.0367 86.867 84.5431 86.4281L83.2626 84.9502Z" fill="white"/>
<path d="M60.3751 90.7952L59.9617 92.7051C60.6156 92.8469 61.2852 92.9671 61.9538 93.0619L62.2294 91.1275C61.6077 91.0386 60.9841 90.9261 60.3751 90.7952Z" fill="white"/>
<path d="M92.3765 65C92.3765 65.6285 92.355 66.2629 92.311 66.8836L94.2611 67.0214C94.308 66.3538 94.3315 65.6735 94.3315 65H92.3765Z" fill="white"/>
<path d="M69.7452 91.1257C69.1255 91.2137 68.495 91.2812 67.8704 91.3251L68.0092 93.2752C68.6788 93.2283 69.3552 93.1559 70.0209 93.0611L69.7452 91.1257Z" fill="white"/>
<path d="M65.9848 91.3914C65.3563 91.3914 64.7239 91.3699 64.1032 91.3259L63.9654 93.276C64.632 93.3229 65.3123 93.3464 65.9858 93.3464L65.9848 91.3914Z" fill="white"/>
<path d="M80.25 87.208C79.7261 87.5452 79.1817 87.8688 78.6313 88.1698L79.5697 89.8853C80.1601 89.5618 80.7446 89.2147 81.3077 88.8521L80.25 87.208Z" fill="white"/>
<path d="M76.9491 89.0134C76.3793 89.2734 75.7947 89.5168 75.2112 89.7338L75.8944 91.5656C76.522 91.331 77.1505 91.071 77.7614 90.7914L76.9491 89.0134Z" fill="white"/>
<path d="M73.4244 90.3291C72.8252 90.5041 72.2113 90.6605 71.5975 90.7944L72.0129 92.7043C72.6707 92.5616 73.3305 92.3935 73.9737 92.2049L73.4244 90.3291Z" fill="white"/>
<path d="M89.1538 52.949L90.8693 52.0106C90.5477 51.4231 90.1997 50.8376 89.8351 50.2717L88.191 51.3293C88.5312 51.8571 88.8547 52.4016 89.1538 52.949Z" fill="white"/>
<path d="M75.2063 40.8606L75.8915 39.0298C75.265 38.7952 74.6189 38.5802 73.9698 38.3905L73.4205 40.2663C74.0236 40.4432 74.6238 40.6426 75.2063 40.8606Z" fill="white"/>
<path d="M81.8023 44.4685L82.9762 42.9046C82.4386 42.5009 81.8785 42.1118 81.3135 41.7482L80.2559 43.3923C80.7818 43.7315 81.3028 44.0932 81.8023 44.4685Z" fill="white"/>
<path d="M78.6343 42.4275L79.5726 40.713C78.9842 40.3914 78.3752 40.0855 77.7624 39.8049L76.9481 41.582C77.519 41.8439 78.0859 42.1284 78.6343 42.4275Z" fill="white"/>
<path d="M84.6497 46.9375L86.0328 45.5563C85.5577 45.0803 85.0592 44.616 84.5519 44.1761L83.2704 45.6531C83.7435 46.0627 84.2069 46.4957 84.6497 46.9375Z" fill="white"/>
<path d="M87.1178 49.7839L88.6817 48.611C88.277 48.0714 87.8499 47.5416 87.412 47.0363L85.935 48.3177C86.3416 48.7879 86.7395 49.2815 87.1178 49.7839Z" fill="white"/>
<path d="M92.3101 63.709L94.2601 63.5702C94.2132 62.9006 94.1409 62.2242 94.0461 61.5586L92.1107 61.8342C92.1986 62.4549 92.2661 63.0854 92.3101 63.709Z" fill="white"/>
<path d="M94.2601 67.616C94.308 66.9513 94.3315 66.2719 94.3315 65.5965L94.3315 65.5936L92.3765 65.5965C92.3765 66.226 92.3541 66.8594 92.3101 67.4772L94.2601 67.616Z" fill="white"/>
<path d="M91.7783 59.9819L93.6883 59.5665C93.5456 58.9087 93.3775 58.2489 93.1888 57.6057L91.313 58.155C91.488 58.7542 91.6444 59.3691 91.7783 59.9819Z" fill="white"/>
<path d="M90.7188 56.3691L92.5505 55.6849C92.3159 55.0574 92.0559 54.4289 91.7764 53.8179L89.9984 54.6302C90.2584 55.2001 90.5008 55.7846 90.7188 56.3691Z" fill="white"/>
<path d="M40.6547 58.1599C40.8316 57.5588 41.031 56.9576 41.249 56.3731L39.4182 55.6889C39.1827 56.3174 38.9686 56.9645 38.779 57.6106L40.6547 58.1599Z" fill="white"/>
<path d="M39.8581 61.8391C39.947 61.2174 40.0594 60.5938 40.1914 59.9849L38.2805 59.5714C38.1387 60.2253 38.0185 60.8949 37.9237 61.5635L39.8581 61.8391Z" fill="white"/>
<path d="M71.5946 39.8013L72.0081 37.8913C71.3541 37.7496 70.6846 37.6293 70.016 37.5345L69.7403 39.4689C70.362 39.5579 70.9856 39.6703 71.5946 39.8013Z" fill="white"/>
<path d="M39.5932 65.5212C39.5932 64.8927 39.6147 64.2583 39.6587 63.6377L37.7086 63.4998C37.6617 64.1674 37.6383 64.8478 37.6383 65.5212L39.5932 65.5212Z" fill="white"/>
<path d="M62.2246 39.4707C62.8443 39.3827 63.4748 39.3153 64.0994 39.2713L63.9606 37.3212C63.291 37.3682 62.6146 37.4405 61.9489 37.5353L62.2246 39.4707Z" fill="white"/>
<path d="M65.9849 39.205C66.6134 39.205 67.2458 39.2265 67.8665 39.2705L68.0043 37.3205C67.3377 37.2735 66.6574 37.2501 65.9839 37.2501L65.9849 39.205Z" fill="white"/>
<path d="M51.7197 43.3884C52.2436 43.0512 52.7881 42.7277 53.3384 42.4266L52.4 40.7111C51.8096 41.0347 51.2251 41.3817 50.6621 41.7443L51.7197 43.3884Z" fill="white"/>
<path d="M55.0206 41.583C55.5905 41.323 56.175 41.0796 56.7585 40.8626L56.0753 39.0308C55.4478 39.2654 54.8192 39.5254 54.2083 39.805L55.0206 41.583Z" fill="white"/>
<path d="M58.5454 40.2673C59.1446 40.0924 59.7584 39.936 60.3723 39.8021L59.9568 37.8921C59.299 38.0348 58.6392 38.2029 57.996 38.3916L58.5454 40.2673Z" fill="white"/>
<g filter="url(#filter0_d)">
<path d="M72.7071 54.6949C73.9187 54.6949 74.9044 53.7092 74.9044 52.4976C74.9044 51.2861 73.9187 50.3003 72.7071 50.3003C71.4955 50.3003 70.5098 51.2861 70.5098 52.4976C70.5098 52.9925 70.6744 53.4495 70.9515 53.8172L67.3413 58.8622C67.1259 58.7915 66.896 58.7526 66.6572 58.7526C66.0798 58.7526 65.554 58.9769 65.1615 59.3423L62.7552 57.9768C62.7872 57.8278 62.8045 57.6733 62.8045 57.5148C62.8045 56.3032 61.8188 55.3175 60.6072 55.3175C59.3956 55.3175 58.4099 56.3032 58.4099 57.5148C58.4099 57.6733 58.4272 57.8278 58.4592 57.9768L56.0529 59.3423C55.6604 58.9769 55.1346 58.7527 54.5573 58.7527C53.3457 58.7527 52.36 59.7385 52.36 60.9501C52.36 62.1617 53.3457 63.1474 54.5573 63.1474C55.7688 63.1474 56.7545 62.1617 56.7545 60.9501C56.7545 60.7916 56.7373 60.6371 56.7052 60.488L59.1116 59.1226C59.5041 59.488 60.0299 59.7122 60.6072 59.7122C61.1846 59.7122 61.7102 59.488 62.1028 59.1227L64.5092 60.4881C64.4771 60.6372 64.4599 60.7917 64.4599 60.9502C64.4599 62.1617 65.4456 63.1475 66.6572 63.1475C67.8688 63.1475 68.8545 62.1617 68.8545 60.9502C68.8545 60.4553 68.6899 59.9981 68.4128 59.6304L72.023 54.5854C72.2383 54.6561 72.4682 54.6949 72.7071 54.6949ZM72.7071 51.6187C73.1917 51.6187 73.586 52.0129 73.586 52.4976C73.586 52.9823 73.1917 53.3766 72.7071 53.3766C72.2225 53.3766 71.8282 52.9823 71.8282 52.4976C71.8281 52.0129 72.2224 51.6187 72.7071 51.6187ZM54.557 61.8289C54.0724 61.8289 53.6781 61.4346 53.6781 60.9499C53.6781 60.4652 54.0724 60.0709 54.557 60.0709C55.0416 60.0709 55.4359 60.4652 55.4359 60.9499C55.4359 61.4346 55.0416 61.8289 54.557 61.8289ZM60.607 58.3937C60.1224 58.3937 59.7281 57.9994 59.7281 57.5147C59.7281 57.0301 60.1224 56.6358 60.607 56.6358C61.0917 56.6358 61.4859 57.0301 61.4859 57.5147C61.486 57.9994 61.0917 58.3937 60.607 58.3937ZM66.6571 61.8289C66.1724 61.8289 65.7782 61.4346 65.7782 60.9499C65.7782 60.4652 66.1724 60.0709 66.6571 60.0709C67.1418 60.0709 67.5361 60.4652 67.5361 60.9499C67.5361 61.4346 67.1417 61.8289 66.6571 61.8289Z" fill="white"/>
<path d="M80.8082 76.1317H76.1952H51.0689H45.8646C45.5634 76.1317 45.3184 75.8867 45.3184 75.5855V48.3905C45.3184 48.0893 45.5634 47.8442 45.8646 47.8442H48.9721C49.3361 47.8442 49.6312 47.5492 49.6312 47.1851C49.6312 46.8209 49.3361 46.5259 48.9721 46.5259H45.8646C44.8365 46.5259 44 47.3623 44 48.3905V75.5855C44 76.6137 44.8365 77.4501 45.8646 77.4501H50.4097V78.9008C50.4097 79.7273 51.0821 80.3996 51.9085 80.3996H58.5068L55.4007 86.4639C55.2348 86.788 55.3629 87.1851 55.6869 87.3512C55.7831 87.4005 55.8857 87.4238 55.9869 87.4238C56.2264 87.4238 56.4574 87.2928 56.5741 87.0649L59.988 80.3996H67.2761L70.69 87.0649C70.8067 87.2928 71.0377 87.4238 71.2772 87.4238C71.3784 87.4238 71.481 87.4003 71.5772 87.3512C71.9012 87.1851 72.0294 86.788 71.8633 86.4639L68.7573 80.3996H75.3556C76.182 80.3996 76.8544 79.7274 76.8544 78.9008V77.4501H80.8082C81.1723 77.4501 81.4674 77.1551 81.4674 76.7909C81.4674 76.4268 81.1723 76.1317 80.8082 76.1317ZM75.536 78.9008C75.536 79.0003 75.4551 79.0813 75.3556 79.0813H51.9085C51.809 79.0813 51.728 79.0003 51.728 78.9008V77.4501H75.536V78.9008Z" fill="#3362F5"/>
<path d="M51.6088 47.8442H60.6327H66.6313H81.3994C81.7006 47.8442 81.9456 48.0892 81.9456 48.3904V54.658C81.9456 55.0221 82.2408 55.3172 82.6048 55.3172C82.9688 55.3172 83.264 55.0221 83.264 54.658V48.3904C83.264 47.3623 82.4275 46.5258 81.3994 46.5258H67.2906V45.2302C67.2906 44.3183 66.5487 43.5764 65.6367 43.5764H61.6273C60.7155 43.5764 59.9735 44.3183 59.9735 45.2302V46.5258H51.6088C51.2447 46.5258 50.9496 46.8209 50.9496 47.185C50.9496 47.5492 51.2447 47.8442 51.6088 47.8442ZM61.2919 45.2302C61.2919 45.0452 61.4423 44.8948 61.6273 44.8948H65.6367C65.8216 44.8948 65.9722 45.0452 65.9722 45.2302V46.5258H61.2919V45.2302H61.2919Z" fill="#3362F5"/>
<path d="M53.2199 66.5173C52.8559 66.5173 52.5607 66.8124 52.5607 67.1765V73.0012C52.5607 73.3653 52.8559 73.6604 53.2199 73.6604H55.8942C56.2582 73.6604 56.5533 73.3653 56.5533 73.0012V67.1765C56.5533 66.8124 56.2582 66.5173 55.8942 66.5173H53.2199ZM55.235 72.3421H53.8791V67.8358H55.235V72.3421Z" fill="#3362F5"/>
<path d="M59.2698 63.1489C58.9058 63.1489 58.6107 63.444 58.6107 63.8081V73.0015C58.6107 73.3657 58.9058 73.6607 59.2698 73.6607H61.9441C62.3081 73.6607 62.6033 73.3657 62.6033 73.0015V63.8081C62.6033 63.444 62.3081 63.1489 61.9441 63.1489H59.2698ZM61.285 72.3424H59.9291V64.4673H61.285V72.3424Z" fill="#3362F5"/>
<path d="M65.3199 66.5173C64.9558 66.5173 64.6607 66.8124 64.6607 67.1765V73.0012C64.6607 73.3653 64.9558 73.6604 65.3199 73.6604H67.9941C68.3582 73.6604 68.6533 73.3653 68.6533 73.0012V67.1765C68.6533 66.8124 68.3582 66.5173 67.9941 66.5173H65.3199ZM67.335 72.3421H65.9791V67.8358H67.335V72.3421Z" fill="#3362F5"/>
<path d="M71.3699 70.4072C71.0059 70.4072 70.7108 70.7023 70.7108 71.0664V73.0015C70.7108 73.3656 71.0059 73.6607 71.3699 73.6607H74.0442C74.4082 73.6607 74.7034 73.3656 74.7034 73.0015C74.7034 72.6374 74.4082 72.3423 74.0442 72.3423H72.0291V71.0664C72.0291 70.7023 71.734 70.4072 71.3699 70.4072Z" fill="#3362F5"/>
<path d="M88.6638 76.7517L84.8822 70.2016C85.8403 69.1804 86.5379 67.9326 86.9106 66.5418C87.5062 64.319 87.2006 61.9972 86.0499 60.0042C83.6746 55.8898 78.3949 54.4753 74.2807 56.8506C70.1665 59.2258 68.7519 64.5055 71.1272 68.6197C72.2779 70.6128 74.1358 72.0383 76.3586 72.6341C77.101 72.833 77.8541 72.9313 78.6025 72.9313C79.2566 72.9313 79.9069 72.8561 80.5428 72.7072L84.3237 79.2575C84.7872 80.0606 85.6311 80.5099 86.4979 80.5099C86.9226 80.5099 87.353 80.4018 87.7466 80.1747C88.5197 79.7285 89 78.8964 89 78.0033C89 77.5657 88.8838 77.133 88.6638 76.7517ZM76.6998 71.3606C74.8171 70.8561 73.2434 69.6486 72.2688 67.9606C70.257 64.4759 71.4552 60.0042 74.9398 57.9923C76.0862 57.3305 77.3389 57.0162 78.5762 57.0162C81.1 57.0162 83.5581 58.3251 84.9081 60.6634C85.8826 62.3514 86.1416 64.3179 85.6371 66.2006C85.1326 68.0834 83.925 69.6569 82.237 70.6316C80.5491 71.6062 78.5826 71.8649 76.6998 71.3606ZM87.0877 79.0329C86.5205 79.3603 85.7928 79.1654 85.4656 78.5985L81.828 72.2964C82.1926 72.1476 82.5496 71.9736 82.8964 71.7733C83.2435 71.573 83.5722 71.3499 83.8834 71.1084L87.5221 77.4107C87.6265 77.5919 87.6817 77.7968 87.6817 78.0034C87.6817 78.4268 87.454 78.8214 87.0877 79.0329Z" fill="#3362F5"/>
<path d="M84.5652 66.1689C85.0306 64.6699 84.9198 63.065 84.2531 61.65C84.0979 61.3205 83.7052 61.1794 83.3759 61.3345C83.0465 61.4897 82.9053 61.8824 83.0605 62.2118C83.5864 63.328 83.6736 64.5944 83.3062 65.7779C82.9367 66.968 82.1385 67.9667 81.0586 68.5901C79.9158 69.25 78.5843 69.4251 77.3098 69.0837C76.0353 68.7421 74.9698 67.9246 74.3101 66.7819C72.9481 64.4228 73.7593 61.3955 76.1184 60.0335C77.8432 59.0378 79.9838 59.1708 81.5721 60.3725C81.8625 60.5922 82.2758 60.535 82.4955 60.2446C82.7151 59.9543 82.6579 59.5408 82.3675 59.3212C80.3556 57.7989 77.6438 57.6304 75.4591 58.8917C74.0114 59.7275 72.9758 61.0772 72.5431 62.6919C72.1104 64.3066 72.3325 65.9932 73.1683 67.441C74.0042 68.8888 75.3538 69.9243 76.9686 70.3571C77.5078 70.5016 78.055 70.5731 78.5986 70.5731C79.683 70.5731 80.7534 70.2886 81.7176 69.7318C83.0858 68.9421 84.0971 67.6768 84.5652 66.1689Z" fill="#3362F5"/>
</g>
<defs>
<filter id="filter0_d" x="39" y="38.5764" width="55" height="53.8473" filterUnits="userSpaceOnUse" color-interpolation-filters="sRGB">
<feFlood flood-opacity="0" result="BackgroundImageFix"/>
<feColorMatrix in="SourceAlpha" type="matrix" values="0 0 0 0 0 0 0 0 0 0 0 0 0 0 0 0 0 0 127 0"/>
<feOffset/>
<feGaussianBlur stdDeviation="2.5"/>
<feColorMatrix type="matrix" values="0 0 0 0 0.2 0 0 0 0 0.384314 0 0 0 0 0.960784 0 0 0 0.35 0"/>
<feBlend mode="normal" in2="BackgroundImageFix" result="effect1_dropShadow"/>
<feBlend mode="normal" in="SourceGraphic" in2="effect1_dropShadow" result="shape"/>
</filter>
</defs>
</svg>
