<svg width="50" height="50" viewBox="0 0 50 50" fill="none" xmlns="http://www.w3.org/2000/svg">
<g clip-path="url(#clip0)">
<path d="M13.8221 8.35704C14.1613 9.33874 15.0755 9.99876 16.0972 9.99876H22.2899C23.3116 9.99876 24.2258 9.33874 24.565 8.35704C24.8883 7.41868 25.9042 5.31944 26.6925 4.65275C27.3834 4.0669 27.7076 3.15937 27.5376 2.28434C27.3709 1.42348 26.7701 0.743456 25.9309 0.465947C23.4299 -0.363247 21.2115 -0.0840712 19.5156 1.27181C19.2115 1.51515 18.8031 1.51515 18.4989 1.27181C16.8031 -0.0832379 14.5863 -0.362414 12.0837 0.46678C11.2445 0.74429 10.6428 1.42348 10.4762 2.28517C10.3062 3.1602 10.6303 4.06773 11.3212 4.65359C12.2137 5.40861 13.5804 7.65702 13.8221 8.35704ZM12.1129 2.60269C12.1429 2.44685 12.2479 2.1685 12.6079 2.04933C13.3829 1.79266 14.1055 1.66515 14.7738 1.66515C15.8022 1.66515 16.7005 1.9685 17.4581 2.57435C18.3706 3.30521 19.6456 3.30354 20.5565 2.57435C21.8074 1.57432 23.4383 1.39765 25.4067 2.04933C25.7667 2.1685 25.8709 2.44768 25.9009 2.60269C25.9567 2.89186 25.85 3.1827 25.615 3.38188C24.3416 4.46025 23.2033 7.19534 22.9899 7.81453C22.8833 8.12454 22.6016 8.33288 22.2907 8.33288H16.098C15.7864 8.33288 15.5055 8.12454 15.3988 7.81453C15.0513 6.80783 13.5054 4.31941 12.3996 3.38188C12.1637 3.18187 12.0562 2.89103 12.1129 2.60269Z" fill="#3362F5"/>
<path d="M26.2776 11.6654C26.2776 11.2054 25.9043 10.832 25.4443 10.832C25.2893 10.832 25.1518 10.8862 25.0276 10.9595C24.9034 10.8854 24.7659 10.832 24.6109 10.832H14.6106C14.1506 10.832 13.7772 11.2054 13.7772 11.6654C13.7772 12.1254 14.1506 12.4988 14.6106 12.4988H24.6109V13.3321H15.4439C14.9839 13.3321 14.6106 13.7055 14.6106 14.1655C14.6106 14.6255 14.9839 14.9988 15.4439 14.9988H25.3818C26.1285 15.6205 27.0485 15.9764 28.031 15.9764C29.1436 15.9764 30.1903 15.5422 30.9778 14.7547C31.3036 14.4288 31.3036 13.9021 30.9778 13.5763C30.6519 13.2504 30.1253 13.2504 29.7994 13.5763C28.8577 14.518 27.226 14.5205 26.2776 13.588V11.6654Z" fill="#3362F5"/>
<path d="M17.944 21.6658C12.6014 21.6658 6.27698 28.4418 6.27698 34.1662C6.27698 34.6262 6.65032 34.9996 7.11034 34.9996C7.57035 34.9996 7.9437 34.6262 7.9437 34.1662C7.9437 29.4077 13.5514 23.3325 17.944 23.3325C18.404 23.3325 18.7774 22.9591 18.7774 22.4991C18.7774 22.0391 18.404 21.6658 17.944 21.6658Z" fill="#3362F5"/>
<path d="M41.2781 26.666C40.4189 26.666 39.3955 26.716 38.3638 26.8335C37.2413 24.7784 35.7612 23.0108 33.8928 21.58L27.891 17.5007C26.8984 16.739 25.3342 15.8323 23.5192 15.8323H17.0381C15.4347 15.8323 13.858 16.3781 12.6213 17.3507L6.72278 21.6483C0.575073 26.4818 -1.37083 34.9521 2.09679 41.789C3.3585 44.2766 5.46607 47.2825 8.34783 47.4775C8.57367 47.4925 8.80201 47.5008 9.03202 47.5008H25.2484C26.4718 49.0225 28.3443 50.0009 30.4444 50.0009C32.8595 50.0009 34.9729 48.705 36.1429 46.7766C37.6321 47.2392 39.458 47.5008 41.2781 47.5008C45.2857 47.5008 49.6117 46.2266 49.6117 44.1674V39.5839H49.5459C49.5859 39.4489 49.6117 39.3106 49.6117 39.1672V34.1671V29.5836C49.6117 27.2802 44.3732 26.666 41.2781 26.666ZM47.8816 29.5752C47.8641 29.5927 47.85 29.6102 47.8258 29.6294C47.7933 29.6552 47.7541 29.6827 47.71 29.7111C47.655 29.7461 47.5883 29.7827 47.5158 29.8194C47.4566 29.8494 47.395 29.8802 47.3241 29.9111C47.2366 29.9502 47.1333 29.9894 47.0275 30.0294C46.9425 30.0611 46.8566 30.0927 46.7599 30.1252C46.6383 30.1653 46.4983 30.2053 46.3574 30.2444C46.2474 30.2753 46.1391 30.3069 46.0174 30.3369C45.8591 30.3761 45.6807 30.4119 45.5032 30.4478C45.3691 30.4753 45.2416 30.5036 45.0966 30.5294C44.8965 30.5644 44.6732 30.5944 44.4524 30.6244C44.3015 30.6453 44.1607 30.6686 43.9999 30.6869C43.7373 30.7169 43.4482 30.7378 43.1598 30.7586C43.0132 30.7694 42.8798 30.7844 42.7265 30.7936C42.2715 30.8186 41.7898 30.8336 41.2756 30.8336C40.7614 30.8336 40.2797 30.8186 39.8247 30.7936C39.6714 30.7853 39.538 30.7703 39.3914 30.7586C39.103 30.7369 38.8138 30.7161 38.5513 30.6869C38.3905 30.6686 38.2497 30.6453 38.0988 30.6244C37.878 30.5944 37.6546 30.5644 37.4546 30.5294C37.3096 30.5036 37.1821 30.4753 37.048 30.4478C36.8704 30.4111 36.6921 30.3753 36.5338 30.3369C36.4121 30.3069 36.3046 30.2761 36.1938 30.2444C36.0529 30.2053 35.9137 30.1653 35.7912 30.1252C35.6946 30.0936 35.6087 30.0611 35.5237 30.0294C35.4179 29.9894 35.3146 29.9502 35.2271 29.9111C35.1562 29.8802 35.0946 29.8494 35.0354 29.8194C34.9629 29.7819 34.8962 29.7452 34.8412 29.7111C34.797 29.6827 34.7579 29.6561 34.7254 29.6294C34.7029 29.6119 34.6904 29.5961 34.6737 29.5794C34.6837 29.5711 34.6904 29.5627 34.702 29.5536C34.7329 29.5277 34.777 29.4986 34.8204 29.4702C34.8879 29.4261 34.972 29.3794 35.0712 29.3294C35.1254 29.3019 35.1787 29.2752 35.2421 29.2477C35.3079 29.2186 35.3837 29.1894 35.4596 29.1594C35.5496 29.1244 35.6479 29.0894 35.7521 29.0544C35.8271 29.0294 35.8996 29.0035 35.9829 28.9785C36.1696 28.9219 36.3738 28.866 36.5979 28.8119C36.7013 28.7869 36.8213 28.7644 36.9338 28.741C37.0696 28.7119 37.2088 28.6835 37.3563 28.6569C37.5188 28.6277 37.6913 28.6002 37.8696 28.5735C38.8088 28.4319 39.9331 28.3335 41.2739 28.3335C45.2124 28.3327 47.415 29.1452 47.8816 29.5752ZM35.1737 36.4313C35.2487 36.463 35.3262 36.493 35.4046 36.5238C35.5496 36.5805 35.6979 36.6338 35.8512 36.6863C35.9321 36.7138 36.0113 36.7405 36.0938 36.7663C36.2696 36.8213 36.4504 36.8721 36.6354 36.9213C36.7004 36.9388 36.7629 36.958 36.8288 36.9738C37.0813 37.0371 37.3396 37.0955 37.6046 37.1472C37.6596 37.158 37.7171 37.1663 37.773 37.1772C37.9855 37.2172 38.2005 37.2538 38.4188 37.2863C38.5122 37.3005 38.6063 37.3122 38.7005 37.3247C38.888 37.3497 39.0764 37.3722 39.2672 37.3922C39.3672 37.4022 39.4672 37.4122 39.5672 37.4213C39.7639 37.4388 39.9614 37.4522 40.1597 37.4638C40.2481 37.4688 40.3364 37.4755 40.4247 37.4797C40.7097 37.4922 40.9939 37.5005 41.2773 37.5005C41.5606 37.5005 41.8448 37.4922 42.1298 37.4797C42.2198 37.4755 42.3098 37.4688 42.3998 37.4638C42.5956 37.4522 42.7915 37.4388 42.9865 37.4222C43.089 37.413 43.1915 37.403 43.2932 37.3922C43.4807 37.373 43.6665 37.3505 43.8515 37.3255C43.9482 37.313 44.0449 37.3005 44.1407 37.2863C44.3557 37.2547 44.5674 37.218 44.7765 37.1788C44.8357 37.168 44.8957 37.1588 44.9549 37.1472C45.2182 37.0947 45.4757 37.0371 45.7266 36.9746C45.7966 36.9571 45.8632 36.9371 45.9324 36.9188C46.1133 36.8705 46.2908 36.8205 46.4624 36.7663C46.5466 36.7396 46.6274 36.7121 46.7091 36.6846C46.8616 36.633 47.01 36.5788 47.1541 36.523C47.2316 36.493 47.3091 36.4621 47.3841 36.4305C47.5341 36.3671 47.6766 36.3005 47.8141 36.2321C47.8575 36.2105 47.9067 36.1921 47.9483 36.1705L47.9533 39.1072C47.7575 39.5814 45.6041 40.6381 42.2065 40.8073C41.9015 40.8181 41.6064 40.8331 41.2773 40.8331C39.4414 40.8331 37.628 40.5514 36.2429 40.0564C36.2379 40.0481 36.2321 40.0397 36.2271 40.0314C36.1288 39.8597 36.0246 39.6922 35.9121 39.5306C35.8954 39.5064 35.8762 39.4839 35.8587 39.4597C35.7546 39.3139 35.6471 39.1714 35.5312 39.0347C35.4962 38.9939 35.4587 38.9564 35.4229 38.9155C35.3204 38.7997 35.2171 38.6855 35.1071 38.5772C35.0504 38.5214 34.9896 38.4714 34.9312 38.4172C34.8345 38.3289 34.7395 38.2405 34.6387 38.158C34.6287 38.1497 34.6204 38.1405 34.6104 38.133C34.6104 37.8072 34.6112 37.083 34.612 36.1721C34.6545 36.1946 34.7054 36.2138 34.7487 36.2355C34.8862 36.303 35.0262 36.3688 35.1737 36.4313ZM24.1642 45.8333H9.03202C8.83951 45.8333 8.64784 45.8266 8.45867 45.8141C6.82111 45.7033 5.08939 44.0057 3.58267 41.0348C0.473402 34.9046 2.22763 27.3018 7.72781 22.9767L13.6263 18.679C14.5947 17.9182 15.8064 17.499 17.0373 17.499H23.5183C24.8659 17.499 26.0876 18.219 26.9151 18.8515L32.917 22.93C34.4079 24.0734 35.6504 25.4718 36.6213 27.0976C35.5662 27.3152 34.5462 27.6468 33.8453 28.1335C33.8262 28.1469 33.807 28.1602 33.7878 28.1735C33.682 28.2502 33.5853 28.331 33.497 28.416C33.4595 28.4519 33.4262 28.4885 33.392 28.526C33.3262 28.5985 33.2628 28.6719 33.2112 28.7502C33.1678 28.8144 33.1362 28.8835 33.1028 28.9519C33.0737 29.0135 33.0387 29.0727 33.0178 29.1377C32.972 29.2786 32.9436 29.4261 32.9436 29.5827V34.1662V37.1572C32.6628 37.043 32.372 36.9513 32.0736 36.8763C32.0345 36.8663 31.9953 36.8555 31.9561 36.8463C31.6644 36.778 31.3669 36.7263 31.0628 36.698C31.0286 36.6946 30.9944 36.6955 30.9603 36.693C30.7894 36.6796 30.6177 36.6671 30.4436 36.6671C30.3519 36.6671 30.2636 36.6771 30.1727 36.6805C30.1019 36.683 30.0311 36.6863 29.9602 36.6913C29.6635 36.713 29.3702 36.7471 29.0852 36.8063C29.0794 36.8071 29.0744 36.8071 29.0685 36.8088C29.046 36.8138 29.0252 36.823 29.0027 36.828C28.7418 36.8855 28.4877 36.9613 28.2393 37.0496C28.1493 37.0813 28.0593 37.113 27.971 37.148C27.7235 37.2472 27.4818 37.3572 27.2493 37.4847C27.1618 37.5322 27.0801 37.5872 26.9951 37.6388C26.8326 37.738 26.6743 37.8422 26.5218 37.9547C26.4318 38.0205 26.3409 38.0847 26.2543 38.1547C26.0584 38.313 25.8717 38.4822 25.6951 38.6622C25.6176 38.7405 25.5467 38.8239 25.4734 38.9064C25.3484 39.0464 25.2292 39.1922 25.1167 39.3422C25.0559 39.4239 24.9917 39.5014 24.9342 39.5856C24.7875 39.7997 24.6567 40.0247 24.5359 40.2556C24.4892 40.3456 24.4467 40.4373 24.4034 40.5298C24.3084 40.7339 24.2234 40.9423 24.1492 41.1573C24.1275 41.2198 24.1009 41.279 24.0817 41.3423C23.9959 41.6156 23.9334 41.899 23.8834 42.1856C23.8767 42.2223 23.8633 42.2573 23.8575 42.294C23.8508 42.339 23.8508 42.3873 23.845 42.4323C23.8183 42.6282 23.8017 42.8265 23.7925 43.0273C23.7892 43.099 23.7825 43.1698 23.7817 43.2424C23.7817 43.2732 23.7767 43.3032 23.7767 43.334C23.7767 43.4665 23.7892 43.5957 23.7967 43.7257C23.8292 44.4457 23.9467 45.1691 24.1642 45.8333ZM30.4444 48.3334C27.7068 48.3334 25.4792 46.1216 25.4476 43.3924C25.4476 43.3274 25.4492 43.2632 25.4517 43.1982C25.4542 43.1065 25.4584 43.0157 25.4659 42.9248C25.4717 42.8482 25.4809 42.7723 25.4901 42.6965C25.5001 42.619 25.5117 42.5423 25.5251 42.4665C25.5626 42.2498 25.6109 42.0356 25.6767 41.8281C25.6834 41.8056 25.6934 41.7848 25.7009 41.7631C25.7709 41.554 25.8551 41.3498 25.9526 41.1523C25.9618 41.1331 25.9709 41.1139 25.9801 41.0956C26.4293 40.2139 27.1385 39.4689 27.9977 38.978C28.001 38.9764 28.0035 38.9739 28.0068 38.9722C28.2018 38.8614 28.4068 38.768 28.6152 38.6847C28.6693 38.663 28.7243 38.6439 28.7785 38.6247C28.9635 38.5589 29.1519 38.5014 29.346 38.4589C29.3727 38.453 29.3977 38.4439 29.4244 38.4389C29.6652 38.3897 29.9069 38.363 30.1477 38.3489C30.1936 38.3464 30.2394 38.343 30.2861 38.3422C30.5319 38.3347 30.7769 38.3414 31.0186 38.3697C31.0328 38.3714 31.0461 38.3739 31.0594 38.3764C31.3144 38.408 31.5669 38.4589 31.8153 38.5305C31.8186 38.5314 31.8228 38.5322 31.8261 38.533C32.082 38.6072 32.3328 38.703 32.5778 38.8189C32.8028 38.9255 33.022 39.0447 33.227 39.1822L33.2603 39.2056C33.2895 39.2256 33.3162 39.2481 33.3445 39.2681C33.4828 39.3672 33.6153 39.4722 33.7428 39.5847C33.7737 39.6114 33.8037 39.6397 33.8337 39.6672C33.9612 39.7856 34.0829 39.9089 34.197 40.0389C34.2087 40.0522 34.2204 40.0639 34.232 40.0772C34.497 40.3856 34.7254 40.7264 34.9087 41.0923C34.9512 41.1756 34.9937 41.2598 35.0312 41.3456C35.0946 41.4915 35.1496 41.639 35.1987 41.7881C35.2021 41.799 35.2071 41.8098 35.2104 41.8206C35.2587 41.9715 35.2979 42.1248 35.3312 42.279C35.3337 42.2915 35.3379 42.3032 35.3404 42.3148C35.3721 42.4682 35.3954 42.6232 35.4129 42.779C35.4146 42.7932 35.4179 42.8057 35.4196 42.8198C35.4371 42.9898 35.4462 43.1607 35.4462 43.3332C35.4462 43.5099 35.4362 43.6857 35.4179 43.8607C35.4154 43.8865 35.4096 43.9107 35.4062 43.9365C35.3879 44.0874 35.3654 44.2374 35.3329 44.3849C35.3296 44.4016 35.3237 44.4174 35.3204 44.4341C35.2846 44.5924 35.2421 44.7491 35.1904 44.9041C35.1879 44.9107 35.1854 44.9174 35.1829 44.9241C35.1279 45.0858 35.0646 45.2449 34.9929 45.4024C34.202 47.1283 32.4628 48.3334 30.4444 48.3334ZM41.2781 45.8333C39.6964 45.8333 38.1222 45.6224 36.8288 45.2449C36.8296 45.2433 36.8296 45.2416 36.8296 45.2399C36.9104 44.9699 36.9696 44.6916 37.0163 44.4082C37.0271 44.3407 37.038 44.2741 37.0471 44.2057C37.0846 43.919 37.1113 43.6299 37.1113 43.3332C37.1113 43.1173 37.0996 42.9032 37.0788 42.6907C37.0713 42.614 37.058 42.5398 37.048 42.464C37.0338 42.3565 37.0238 42.2482 37.0046 42.1423C38.2688 42.3757 39.7372 42.4998 41.2781 42.4998C43.2698 42.4998 46.1491 42.2457 47.9483 41.4506L47.9533 44.1074C47.74 44.6232 45.2107 45.8333 41.2781 45.8333ZM41.2781 35.8329C37.3588 35.8329 34.8354 34.6321 34.6154 34.1712C34.6162 33.2212 34.617 32.257 34.617 31.4536C34.6379 31.4628 34.6629 31.4703 34.6845 31.4795C34.8837 31.5645 35.0921 31.6445 35.3137 31.7178C35.3254 31.722 35.3371 31.7261 35.3496 31.7295C35.5762 31.8028 35.8154 31.8686 36.0596 31.9295C36.1396 31.9495 36.2221 31.9678 36.3038 31.9861C36.4821 32.027 36.6621 32.0661 36.8463 32.1012C36.9355 32.1187 37.0238 32.1353 37.1138 32.1512C37.3163 32.187 37.5196 32.2187 37.7255 32.2487C37.7905 32.2578 37.8546 32.2687 37.9197 32.2778C38.1888 32.3137 38.458 32.3453 38.7255 32.3712C38.793 32.3778 38.8588 32.3828 38.9263 32.3887C39.1322 32.407 39.3355 32.4237 39.5372 32.437C39.6247 32.4428 39.7097 32.4478 39.7955 32.4528C39.9822 32.4637 40.1639 32.472 40.3439 32.4787C40.4197 32.4812 40.4956 32.4845 40.5697 32.487C40.8139 32.4937 41.0523 32.4978 41.2773 32.4978C41.5014 32.4978 41.7398 32.4937 41.984 32.487C42.0598 32.4845 42.1365 32.4812 42.2131 32.4787C42.3915 32.472 42.5723 32.4637 42.7581 32.4528C42.8456 32.4478 42.9315 32.4428 43.0198 32.437C43.2215 32.4237 43.4257 32.407 43.6315 32.3878C43.6982 32.382 43.7632 32.377 43.8298 32.3703C44.0982 32.3437 44.3674 32.3128 44.6365 32.2762C44.7024 32.267 44.7674 32.2562 44.8332 32.247C45.0382 32.2178 45.2416 32.1853 45.4432 32.1495C45.5341 32.1336 45.6224 32.1162 45.7116 32.0995C45.8958 32.0637 46.0766 32.0253 46.2558 31.9836C46.3374 31.9645 46.4191 31.947 46.4991 31.927C46.7483 31.8645 46.9916 31.7978 47.2225 31.7228C47.2341 31.7186 47.2441 31.7145 47.2558 31.7111C47.4733 31.6395 47.6791 31.5603 47.875 31.477C47.8983 31.467 47.9258 31.4586 47.9492 31.4486L47.9542 34.1054C47.74 34.6229 45.2107 35.8329 41.2781 35.8329Z" fill="#3362F5"/>
</g>
<defs>
<clipPath id="clip0">
<rect width="50" height="50" fill="white"/>
</clipPath>
</defs>
</svg>
