<svg width="26" height="26" viewBox="0 0 26 26" fill="none" xmlns="http://www.w3.org/2000/svg">
<g clip-path="url(#clip0)">
<path d="M25.8622 18.9799C25.8307 18.912 25.8013 18.8557 25.7741 18.8107C25.323 17.9982 24.4609 17.001 23.1885 15.8187L23.1616 15.7916L23.1481 15.7784L23.1345 15.7648H23.1209C22.5434 15.2142 22.1777 14.8441 22.0245 14.6545C21.7443 14.2935 21.6815 13.9281 21.8347 13.5579C21.9429 13.2781 22.3493 12.6873 23.053 11.7847C23.4232 11.3063 23.7163 10.9229 23.9328 10.6341C25.4942 8.55829 26.1712 7.23182 25.9635 6.65417L25.8828 6.51918C25.8286 6.43791 25.6888 6.36357 25.4634 6.29576C25.2375 6.2281 24.9488 6.21692 24.5968 6.26201L20.6982 6.28894C20.635 6.26656 20.5448 6.26864 20.4274 6.29576C20.31 6.32289 20.2513 6.33649 20.2513 6.33649L20.1835 6.3704L20.1296 6.41112C20.0845 6.43806 20.0348 6.48542 19.9806 6.55313C19.9267 6.6206 19.8816 6.69978 19.8456 6.79001C19.4211 7.88201 18.9385 8.8973 18.3969 9.83582C18.063 10.3955 17.7563 10.8805 17.4762 11.2911C17.1965 11.7016 16.9619 12.0041 16.7725 12.198C16.5829 12.392 16.4117 12.5475 16.258 12.6649C16.1045 12.7824 15.9873 12.8321 15.9062 12.8139C15.8249 12.7958 15.7483 12.7777 15.6758 12.7597C15.5496 12.6785 15.448 12.5679 15.3714 12.4281C15.2945 12.2882 15.2427 12.1121 15.2157 11.9001C15.1887 11.6878 15.1728 11.5053 15.1683 11.3518C15.164 11.1985 15.166 10.9817 15.1751 10.7019C15.1845 10.4221 15.1887 10.2327 15.1887 10.1334C15.1887 9.7904 15.1954 9.41815 15.2088 9.01655C15.2225 8.61495 15.2335 8.29675 15.2428 8.06233C15.252 7.82768 15.2563 7.57942 15.2563 7.31769C15.2563 7.05596 15.2403 6.8507 15.2088 6.70173C15.1777 6.55294 15.13 6.40852 15.0671 6.2685C15.0038 6.12863 14.9111 6.02043 14.7896 5.94362C14.6678 5.8669 14.5163 5.80602 14.3361 5.76079C13.8577 5.65254 13.2486 5.59398 12.5084 5.58488C10.8299 5.56686 9.75136 5.67525 9.27305 5.90991C9.08353 6.00905 8.91204 6.14451 8.7587 6.31587C8.59621 6.51449 8.57355 6.62288 8.69085 6.64071C9.23242 6.72183 9.61581 6.9159 9.84145 7.22272L9.92277 7.3853C9.98602 7.5026 10.0492 7.71028 10.1124 8.00804C10.1755 8.3058 10.2162 8.63519 10.2341 8.99602C10.2792 9.65493 10.2792 10.219 10.2341 10.6882C10.189 11.1576 10.1463 11.523 10.1055 11.7847C10.0648 12.0465 10.0039 12.2586 9.92277 12.4209C9.84145 12.5834 9.78735 12.6827 9.76023 12.7187C9.73316 12.7547 9.71059 12.7775 9.69267 12.7864C9.57536 12.8313 9.45337 12.8542 9.3271 12.8542C9.20065 12.8542 9.04731 12.791 8.86685 12.6646C8.68644 12.5382 8.4992 12.3645 8.30513 12.1434C8.11107 11.9222 7.8922 11.6131 7.64845 11.2161C7.40488 10.819 7.15216 10.3497 6.89043 9.80827L6.67389 9.41559C6.53852 9.16296 6.35361 8.79512 6.11896 8.31239C5.88416 7.82948 5.67663 7.36235 5.49622 6.91111C5.4241 6.72159 5.31576 6.57731 5.17138 6.47803L5.10363 6.4373C5.05858 6.40126 4.98628 6.363 4.88708 6.32222C4.78775 6.28149 4.6841 6.25229 4.57572 6.23432L0.866543 6.26125C0.487514 6.26125 0.230339 6.34711 0.0949234 6.51861L0.0407289 6.59974C0.0136553 6.64492 0 6.71709 0 6.81642C0 6.91571 0.0270736 7.03756 0.0812681 7.18185C0.622739 8.45445 1.21158 9.68177 1.84778 10.864C2.48399 12.0462 3.03684 12.9986 3.506 13.7201C3.97526 14.4422 4.45358 15.1237 4.94095 15.7642C5.42832 16.405 5.75093 16.8157 5.90877 16.9961C6.0668 17.1769 6.19093 17.312 6.28116 17.4022L6.61965 17.727C6.83624 17.9437 7.15429 18.2031 7.57396 18.5054C7.99372 18.8079 8.45842 19.1056 8.96832 19.3992C9.4783 19.6922 10.0716 19.9314 10.7485 20.1164C11.4254 20.3015 12.0841 20.3758 12.725 20.34H14.2818C14.5975 20.3127 14.8367 20.2134 14.9993 20.0421L15.0531 19.9742C15.0894 19.9203 15.1233 19.8367 15.1546 19.724C15.1862 19.6113 15.202 19.487 15.202 19.3518C15.1927 18.9638 15.2223 18.6141 15.2898 18.3028C15.3572 17.9916 15.4342 17.7569 15.5202 17.5989C15.6061 17.441 15.7031 17.3078 15.8111 17.1998C15.9193 17.0915 15.9964 17.0259 16.0416 17.0034C16.0866 16.9807 16.1225 16.9652 16.1495 16.956C16.3661 16.8838 16.621 16.9537 16.9146 17.166C17.208 17.3781 17.4831 17.6399 17.7405 17.9512C17.9977 18.2627 18.3067 18.6122 18.6677 19.0002C19.0288 19.3883 19.3446 19.6768 19.6152 19.8666L19.8859 20.0291C20.0666 20.1375 20.3013 20.2367 20.5901 20.327C20.8785 20.4172 21.1311 20.4397 21.348 20.3946L24.8134 20.3406C25.1561 20.3406 25.4228 20.2838 25.612 20.1712C25.8016 20.0584 25.9142 19.9341 25.9505 19.799C25.9867 19.6636 25.9887 19.5101 25.9574 19.3385C25.9253 19.1673 25.8937 19.0475 25.8622 18.9799Z" fill="#3362F5"/>
</g>
<defs>
<clipPath id="clip0">
<rect width="26" height="26" fill="white"/>
</clipPath>
</defs>
</svg>
